<?xml version="1.0" encoding="utf-8"?>
<!-- Generator: Adobe Illustrator 23.0.5, SVG Export Plug-In . SVG Version: 6.00 Build 0)  -->
<svg version="1.1" id="Capa_1" xmlns="http://www.w3.org/2000/svg" xmlns:xlink="http://www.w3.org/1999/xlink" x="0px" y="0px"
	 viewBox="0 0 800 600" style="enable-background:new 0 0 800 600;" xml:space="preserve">
<style type="text/css">
	.st0{fill:#C8E4DE;}
	.st1{fill:#FFFFFF;}
	.st2{fill-rule:evenodd;clip-rule:evenodd;fill:#A28093;}
</style>
<g>
	<g>
		<rect x="0.56" class="st0" width="799.44" height="600"/>
		<path class="st1" d="M49.23,556.96V43.04c0-9.36,14.16-16.95,31.62-16.95h638.87c17.46,0,31.62,7.59,31.62,16.95v513.92
			c0,9.36-14.16,16.95-31.62,16.95H80.84C63.38,573.91,49.23,566.32,49.23,556.96z"/>
	</g>
</g>
<path class="st2" d="M216.64,16.02c-4.5,1.69-2.75,12.7,2.52,11.78C223.35,27.06,223.79,13.33,216.64,16.02z M161.89,8.82
	c-2.61-1.75-6.13,1.35-7.01,3.85c-1.04,2.96,0.01,8.26,2.52,8.41c2.28,0.14,3.77-2.75,4.49-4.65
	C162.64,14.47,163.94,10.26,161.89,8.82z M62.71,17.71c-1.4,2.38-1.65,5.45-1.59,8.19c0.06,2.81,1.05,5.24,2.83,5.38
	c2.41,0.19,3.7-2.35,4.44-5.02c0.76-2.75,2.02-7.52-0.13-9.9C66.36,14.24,63.95,15.59,62.71,17.71z M113.31,12.67
	c-6.4-1.78-5.51,10.68-2.17,13.43c0.24,0.2,0.47,0.34,0.7,0.44c2.44,1.09,4.28-2.89,4.54-5.09C116.68,18.9,116.27,13.5,113.31,12.67
	z M124.28,51.03c-4.5,1.69-2.75,12.7,2.52,11.78C130.99,62.07,131.43,48.34,124.28,51.03z M776.55,32.02
	c2.77,0.49,4.16-3.54,4.61-5.76c0.33-1.66,0.72-4-0.19-5.53c-0.27-0.45-0.59-0.78-0.93-1c-1.19-0.76-2.71-0.25-3.86,0.85
	c-1.16,1.12-1.93,2.7-2.33,4.3C773.2,27.47,773.46,31.47,776.55,32.02z M779.58,87.09c0.38-2.15,0.92-6.5-1.46-7.59
	c-0.18-0.08-0.37-0.14-0.58-0.19c-1.06-0.21-2.08,0.41-2.74,1.26c-0.93,1.2-1.44,2.79-1.53,4.34c-0.08,1.46,0.22,3.05,1.15,4.18
	C776.5,91.62,779.09,89.86,779.58,87.09z M746.58,34.09c-0.95-0.63-2.2-0.62-3.72,0.46c-1.19,0.85-1.78,2.31-1.89,3.8
	c-0.18,2.55,1.09,6.32,3.88,6.57C749.59,45.34,749.75,36.19,746.58,34.09z M703.42,27.79c-5.57-0.34-7.15,10.17-2.52,10.77
	C704.52,39.03,708.59,28.11,703.42,27.79z M510.06,0.29c-5.68-2.48-9.23,11.76-4.29,12.72c2.56,0.5,4.2-2.81,4.93-4.9
	c0.6-1.72,1.54-4.93,0.53-6.75C510.98,0.9,510.6,0.53,510.06,0.29z M775.59,141.09c3.97-0.02,4.8-8.65,4.03-11.42
	c-0.36-1.3-1.19-2.05-2.82-1.62c-1.42,0.37-2.4,1.9-3,3.21c-0.98,2.15-1.52,5.25-0.72,7.55C773.46,139.9,774.39,141.1,775.59,141.09
	z M637.89,12.31c-1.03-0.99-2.46-1.29-3.72-0.27c-1.08,0.88-1.64,2.33-1.76,3.74c-0.12,1.43,0.19,2.99,1.06,4.12
	c1.45,1.87,3.58,1.39,4.72-0.56c0.89-1.52,1.38-4.31,0.52-5.94C638.48,12.99,638.21,12.62,637.89,12.31z M794.82,171.96
	c2.37-0.52,3.05-5.75,3.25-7.72c0.17-1.59,0.16-3.2-0.25-4.75c-0.15-0.55-0.43-1-0.79-1.33c-0.84-0.77-2.14-0.94-3.29-0.38
	C789.99,159.57,789.1,173.2,794.82,171.96z M775.78,193.69c1.34-1.29,2.47-4.03,2.76-5.9c0.2-1.31,0.55-3.35-0.93-3.86
	c-0.09-0.03-0.18-0.05-0.27-0.08c-0.91-0.2-1.84,0.15-2.66,0.62c-1.84,1.05-3.45,2.72-4.23,4.81c-0.53,1.41-0.9,3.74,0.19,4.97
	C772.02,195.83,774.48,194.95,775.78,193.69z M761.3,218.79c-1.34-6.89-7.38-0.48-7.87,3.36c-0.32,2.54-0.42,6.2,1.28,8.26
	c0.4,0.49,0.96,0.85,1.57,1.02c0.66,0.2,1.38,0.18,2-0.12c1.6-0.76,2.13-3.19,2.57-4.8C761.49,224.07,761.79,221.3,761.3,218.79z
	 M788.83,253.72c2.02-0.59,2.66-5.31,2.95-7.05c0.47-2.79,1.36-8.24-2.4-8.91c-1.72-0.3-3.07,0.64-3.93,2.01
	c-0.56,0.9-0.91,1.98-1.01,3.01C784.19,245.38,784.47,255,788.83,253.72z M769.86,285.93c-1.36-0.45-2.51,0.29-3.4,1.41
	c-0.85,1.08-1.46,2.51-1.8,3.6c-0.76,2.48-0.86,5.18-0.97,7.72c-0.1,2.17-0.49,8.82,2.78,8.9c2.64,0.06,4.08-4.31,4.73-6.46
	c1.13-3.72,1.92-7.99,1.04-11.86C771.93,287.82,771.26,286.39,769.86,285.93z M675.75,48.91c-4.95,0.81-5.21,13.8,0.32,12.79
	C679.2,61.12,680.69,48.1,675.75,48.91z M777.81,318.91c0.08,1.62,1.33,2.74,2.72,3.11c1.27,0.33,2.53-0.32,3.57-1.09
	c1.42-1.05,2.92-3.25,2.47-5.16c-0.13-0.57-0.31-1.16-0.54-1.71c-0.43-1.01-1.08-1.9-2.1-2.25c-1.69-0.6-3.12,0.03-4.23,1.48
	C778.59,314.73,777.72,317.01,777.81,318.91z M102.86,207.68c-0.67,0.01-1.29,0.18-1.88,0.53c-1.17,0.7-1.95,2-2.39,3.32
	c-0.74,2.22-0.73,6.09,2.07,6.58c4.48,0.79,6.03-7.66,3.61-9.9C103.9,207.87,103.43,207.67,102.86,207.68z M787.24,341.91
	c-3.53,1.23-5.16,11.04,0.95,10.09C792.28,351.37,792.39,340.12,787.24,341.91z M764.74,357.75c2.47-0.66,2.95-5.41,2.88-7.63
	c-0.04-1.43-0.34-2.97-1.22-4.09c-1.88-2.4-4.2-0.09-5.06,1.89c-0.61,1.39-0.96,2.94-0.99,4.47
	C760.31,354.98,761.82,358.48,764.74,357.75z M776.94,372.11c-1.26,0.47-2.06,1.97-2.52,3.21c-0.89,2.39-1.22,7.03,2.13,7.28
	c3.3,0.25,4.29-5.38,3.25-8.55C779.3,372.53,778.34,371.58,776.94,372.11z M755.35,84.78c2.28,0.14,3.77-2.75,4.49-4.65
	c0.74-1.96,2.05-6.18,0-7.61c-2.61-1.75-6.13,1.35-7.01,3.85C751.79,79.33,752.85,84.63,755.35,84.78z M777.82,400.99
	c-1.4,2.38-1.65,5.45-1.59,8.19c0.06,2.81,1.05,5.24,2.83,5.38c2.41,0.19,3.7-2.35,4.44-5.02c0.76-2.75,2.02-7.52-0.13-9.9
	C781.47,397.53,779.07,398.87,777.82,400.99z M36.77,582.01c-4.5,1.69-2.75,12.7,2.52,11.78C43.48,593.06,43.92,579.32,36.77,582.01
	z M794.5,451.58c3.1,0.15,4.15-6.26,4.41-8.52c0.17-1.54,0.53-4.47-0.54-5.69c-0.19-0.21-0.39-0.37-0.6-0.49
	c-1.56-0.83-3.66,0.87-4.68,2.01c-1.65,1.84-2.6,4.42-2.37,6.97C790.85,447.31,792.58,451.49,794.5,451.58z M769.2,448.24
	c-0.58-0.38-1.25-0.61-1.94-0.6c-3.48,0.02-3.5,4.77-3.26,7.43c0.19,2.08,0.91,5.57,3.41,5.6c2.07,0.03,3.24-2.66,3.8-4.41
	c0.72-2.24,0.61-4.8-0.76-6.79C770.12,448.98,769.69,448.55,769.2,448.24z M61.07,563.6c-0.46-0.17-0.96-0.21-1.44-0.15
	c-2.75,0.34-4.61,3.86-5.59,6.35c-1.16,2.94-2.04,7.8,0.79,10.05c3.29,2.61,5.96-2.67,6.91-5.32c0.66-1.86,1.32-4.07,1.28-6.08
	c-0.03-1.37-0.09-3.38-1.13-4.35C61.64,563.87,61.37,563.71,61.07,563.6z M775.61,491.62c-3.28,0.9-4.22,10.99,0.63,10.1
	C779.07,501.19,780.13,490.38,775.61,491.62z M798.58,505.86c-0.59-0.99-1.46-1.48-2.6-1.06c-4.39,1.59-5.95,15,0.1,13.74
	C799.6,517.81,800.52,509.11,798.58,505.86z M27.02,41.82c-0.19-0.21-0.39-0.37-0.6-0.49c-1.56-0.83-3.66,0.87-4.68,2.01
	c-1.65,1.84-2.6,4.42-2.37,6.97c0.13,1.45,1.86,5.63,3.78,5.72c3.1,0.15,4.15-6.26,4.41-8.52C27.73,45.97,28.09,43.04,27.02,41.82z
	 M62.06,90.48c-1.97-0.87-4.15,1.05-4.8,2.94c-0.7,2.02-1.22,5.12,0.41,6.75c2.06,1.98,4.83-1.33,5.63-3.28
	C64.08,94.96,64.26,91.45,62.06,90.48z M12.46,76.44c-3.28,0.9-4.22,10.99,0.63,10.1C15.92,86.01,16.99,75.2,12.46,76.44z
	 M29.17,118.35c-4.39,1.59-5.95,15,0.1,13.74c3.52-0.74,4.44-9.43,2.5-12.68C31.17,118.42,30.31,117.94,29.17,118.35z"/>
</svg>
