<?xml version="1.0" encoding="utf-8"?>
<!-- Generator: Adobe Illustrator 23.0.5, SVG Export Plug-In . SVG Version: 6.00 Build 0)  -->
<svg version="1.1" id="Capa_1" xmlns="http://www.w3.org/2000/svg" xmlns:xlink="http://www.w3.org/1999/xlink" x="0px" y="0px"
	 viewBox="0 0 840 1060" style="enable-background:new 0 0 840 1060;" xml:space="preserve">
<style type="text/css">
	.st0{fill:#8F6644;}
	.st1{fill:#B69068;}
	.st2{fill:#CFAD81;}
	.st3{fill:#C39B6D;}
	.st4{fill:#D2B89A;}
	.st5{opacity:0.7;}
	.st6{opacity:0.8;}
	.st7{fill:#963025;}
	.st8{opacity:0.6;}
	.st9{opacity:0.5;}
	.st10{fill:#2E1C14;}
	.st11{fill:#412819;}
	.st12{fill:#FFFFFF;}
	.st13{fill:#E95364;}
	.st14{fill-rule:evenodd;clip-rule:evenodd;fill:#ECCBBD;}
	.st15{fill-rule:evenodd;clip-rule:evenodd;fill:#E8BBAC;}
	.st16{fill:#714013;}
	.st17{opacity:0.1;fill:#EC628E;}
	.st18{opacity:0.07;fill:#EC628E;}
	.st19{opacity:0.15;fill:#EC628E;}
	.st20{opacity:0.1;fill:#13110C;}
	.st21{fill:#26231E;}
</style>
<g>
	<g>
		<path class="st0" d="M341.33,708.19c0,0,0.33,0.96,0.79,2.72c3.22,12.3,12.64,63.59-42.68,97.22c0,0-66.05-42.71-120.03,22.64
			c0,0-43.9,46.55-16.92,137.95c0,0,15.71,83.28,98.68,82c0,0,67.67,0,133.72-60.65c0,0,3.89-0.57,3.62,9.54
			c0,0,0.2,60.51,45.31,47.48c0,0,6.04-1.71,8.46-5.77c0,0,12.49,8.54,25.37,1.71c0,0,15.51-8.11,18.12-13.88
			c0,0-0.6,22,36.05,24.99c0,0,13.29-0.43,21.35-12.39c0,0,21.75,14.09,42.69-27.33c0,0,3.42-7.05,2.42-18.37
			c0,0,40.28,38.87,101.9,53.81c0,0,23.36,2.14,31.01,0.85c0,0,39.87-3.42,58.4-32.03c0,0,22.56-26.05,31.82-76.45
			c0,0,12.49-63.64-24.97-112.33c0,0-41.08-58.51-116.4-23.92c0,0-22.56-14.52-30.61-70.47c0,0-10.47-58.4-23.76-77.67l-29-18
			c0,0-36.25,16.35-38.67,18c-2.42,1.65-43.58,5.49-43.58,5.49s-110.54,0.71-115.91,5.84c-5.37,5.13-56.86,39.97-56.86,39.97"/>
		<g>
			<path class="st1" d="M294.65,805.45c0,0,35.94,27.45,41.85,41.55c0,0,34.94,51.05,20.94,115.32c0,0-15.31,53.81-68.07,65.35
				c0,0-43.1,17.08-89.82-9.4c0,0-28.6-25.63-38.67-63.64c0,0-10.99-35.32-4.29-72.97c0,0,3.31-30.74,31.99-60.89
				c0,0,23.31-28.07,67.68-26.12C256.28,794.65,284.39,797.22,294.65,805.45z"/>
			<g>
				
					<ellipse transform="matrix(0.1546 -0.988 0.988 0.1546 -608.6008 1046.0314)" class="st2" cx="306.94" cy="878.65" rx="30.3" ry="22.43"/>
				
					<ellipse transform="matrix(0.0277 -0.9996 0.9996 0.0277 -605.9261 1090.1895)" class="st2" cx="257.43" cy="856.56" rx="29.62" ry="22.26"/>
				
					<ellipse transform="matrix(0.9502 -0.3117 0.3117 0.9502 -261.8501 109.1442)" class="st2" cx="210.52" cy="873.73" rx="22.28" ry="29.11"/>
				
					<ellipse transform="matrix(0.7932 -0.609 0.609 0.7932 -519.7133 302.0681)" class="st2" cx="184.89" cy="916.23" rx="20.27" ry="25.53"/>
				<path class="st2" d="M210.52,958.05c0,0,5.55-46.13,46.91-48.26c0,0,42.82-1.71,58.12,41c0,0,10.47,36.73-14.9,42.28
					c0,0-12.49,3.27-27.25-6.69c0,0-8.86-3.7-12.89,5.69c0,0-6.44,20.22-24.43,17.94C236.07,1010.01,204.29,1010.58,210.52,958.05z"
					/>
			</g>
		</g>
		<g>
			<path class="st1" d="M681.75,806.8c0,0-35.94,27.45-41.85,41.55c0,0-34.94,51.05-20.94,115.32c0,0,15.31,53.81,68.07,65.35
				c0,0,43.1,17.08,89.82-9.4c0,0,28.6-25.63,38.67-63.64c0,0,10.99-35.32,4.29-72.97c0,0-3.31-30.74-31.99-60.89
				c0,0-23.31-28.07-67.68-26.12C720.12,796,692,798.56,681.75,806.8z"/>
			<g>
				
					<ellipse transform="matrix(0.988 -0.1546 0.1546 0.988 -128.0213 114.1017)" class="st2" cx="669.45" cy="879.99" rx="22.43" ry="30.3"/>
				
					<ellipse transform="matrix(0.9996 -0.0277 0.0277 0.9996 -23.4611 20.2207)" class="st2" cx="718.97" cy="857.9" rx="22.26" ry="29.62"/>
				
					<ellipse transform="matrix(0.3117 -0.9502 0.9502 0.3117 -304.3208 1330.0409)" class="st2" cx="765.88" cy="875.07" rx="29.11" ry="22.28"/>
				
					<ellipse transform="matrix(0.609 -0.7932 0.7932 0.609 -418.3145 986.6287)" class="st2" cx="791.5" cy="917.58" rx="25.53" ry="20.27"/>
				<path class="st2" d="M765.88,959.39c0,0-5.55-46.13-46.91-48.26c0,0-42.82-1.71-58.12,41c0,0-10.47,36.73,14.9,42.28
					c0,0,12.49,3.27,27.25-6.69c0,0,8.86-3.7,12.89,5.69c0,0,6.44,20.22,24.43,17.94C740.32,1011.35,772.1,1011.92,765.88,959.39z"
					/>
			</g>
		</g>
		<path class="st1" d="M365.23,891.28c0,0-19.08-63.69-64.58-83.88c0,0,47.01-25.29,44.05-79.11l48.19-36.74l51.15-9.82l87.23-6.83
			l46.62-8.54c0,0,9.13-10.13,10.74-8.48c1.61,1.65,12.35,0,12.35,0h5.91h18.8c0,0,11.82,22.18,17.7,49.44
			c0,0,8.58,34.91,8.23,40.75c0,0,8.17,43.29,28.44,57.95c0,0-51.55,25.34-68.47,85.28c0,0-0.4-154.47-18.53-166.43
			c0,0,19.2,86.52,7.92,186.27c0,0-3.49,41.37-6.98,63.01c0,0,7.34,20.81,3.2,36.42c0,0-1.93,10.3-16.53,25.34
			c0,0-12.18,13.34-27.48,5.86c0,0,3.02-32.03-4.63-45.06c0,0,5.44,32.89-3.62,51.68c0,0-2.07,4.61-12.14,5.69
			c0,0-34.38-0.49-36.99-24.91c0,0-0.6-22.71,12.42-40.36c0,0-16.45,11.75-17.86,40.79c0,0-31.41-8.97-20.34-46.55
			c0,0,8.53-18.01,11.48-22.85c0,0,20.14-49.54,22.56-77.73c0,0,4.66-116.46,10.39-135.25c0,0-22.2,102.79-22.2,127.84
			c0,0-9.94-12.24-12.35-28.05l-35.04-126.92l-2.42,5.62l15.31,98.66c0,0,13.29,73.89,27.39,84.57c0,0-28.06,52.39-29.13,59.22
			c0,0-16.51,56.38,21.68,74.88c0,0-11.88,7.26-25.37-1.71c0,0-16.92-15.16-19.13-38.01c0,0-2.04,24.24,15.59,41.49
			c0,0-45.4,25.83-50.23-47.05c0,0,0.67-6.54-3.62-7.68c0,0-28.6-182.51-26.99-210.99C367.91,779.09,364.69,854.83,365.23,891.28z"
			/>
		<g>
			<g>
				<path class="st0" d="M257.96,366.79c-2.02-70.03-55.4-135.05-123.59-131.7c-66.93,3.29-119.29,57.52-123.59,131.7
					c-4.2,72.6,53.43,139.42,123.59,131.7C202.27,491.02,260.06,439.49,257.96,366.79z M136.19,482.69
					c-65.66,7.13-119.61-54.54-115.67-121.53c4.02-68.45,53.03-118.49,115.67-121.53c63.82-3.1,113.78,56.9,115.67,121.53
					C253.82,428.25,199.74,475.8,136.19,482.69z"/>
				<path class="st1" d="M251.86,361.17c-1.89-64.62-51.86-124.62-115.67-121.53c-62.64,3.04-111.65,53.07-115.67,121.53
					c-3.94,66.99,50.01,128.65,115.67,121.53C199.74,475.8,253.82,428.25,251.86,361.17z M150.89,464.76
					c-48.48,5.27-88.32-40.37-85.41-89.95c2.97-50.67,39.11-89.87,85.41-89.95c47.05-0.08,81.15,43.79,85.41,89.95
					C240.86,424.25,197.81,459.65,150.89,464.76z"/>
				<path class="st3" d="M236.3,374.81c-4.26-46.16-38.36-90.03-85.41-89.95c-46.3,0.08-82.44,39.28-85.41,89.95
					c-2.91,49.58,36.93,95.23,85.41,89.95C197.81,459.65,240.86,424.25,236.3,374.81z M151.8,459.24
					c-44.41,4.89-80.89-37.43-78.23-83.4c2.72-46.98,35.82-83.33,78.23-83.4c43.1-0.08,74.33,40.6,78.23,83.4
					C234.2,421.68,194.77,454.5,151.8,459.24z"/>
				<path class="st4" d="M151.8,292.44c-42.41,0.07-75.51,36.42-78.23,83.4c-2.66,45.97,33.82,88.29,78.23,83.4
					c42.98-4.73,82.41-37.56,78.23-83.4C226.13,333.04,194.89,292.36,151.8,292.44z"/>
			</g>
			<g>
				<path class="st0" d="M634.53,263.7c72.59,7.55,132.22-57.8,127.87-128.79C757.96,62.37,703.78,9.34,634.53,6.12
					c-70.55-3.28-125.78,60.3-127.87,128.79C504.49,206.01,564.28,256.39,634.53,263.7z M512.97,129.41
					c1.96-63.2,53.66-121.87,119.69-118.84c64.82,2.97,115.52,51.9,119.69,118.84c4.07,65.51-51.75,125.81-119.69,118.84
					C566.9,241.51,510.94,195.02,512.97,129.41z"/>
				<path class="st1" d="M632.65,248.25c67.94,6.97,123.76-53.33,119.69-118.84c-4.16-66.94-54.87-115.87-119.69-118.84
					c-66.03-3.03-117.73,55.65-119.69,118.84C510.94,195.02,566.9,241.51,632.65,248.25z M529.07,142.75
					c4.41-45.14,39.69-88.05,88.38-87.97c47.91,0.08,85.3,38.42,88.38,87.97c3.01,48.49-38.21,93.12-88.38,87.97
					C568.89,225.72,524.35,191.1,529.07,142.75z"/>
				<path class="st3" d="M617.44,230.72c50.16,5.16,91.38-39.48,88.38-87.97c-3.07-49.55-40.46-87.89-88.38-87.97
					c-48.69-0.08-83.97,42.83-88.38,87.97C524.35,191.1,568.89,225.72,617.44,230.72z M535.56,143.76
					c4.04-41.85,36.35-81.63,80.94-81.56c43.88,0.07,78.13,35.62,80.94,81.56c2.75,44.96-35,86.34-80.94,81.56
					C572.03,220.69,531.24,188.59,535.56,143.76z"/>
				<path class="st4" d="M616.5,62.2c43.88,0.07,78.13,35.62,80.94,81.56c2.75,44.96-35,86.34-80.94,81.56
					c-44.47-4.63-85.27-36.73-80.94-81.56C539.59,101.9,571.91,62.12,616.5,62.2z"/>
			</g>
		</g>
		<path class="st0" d="M781.67,388.63c-17.45-149.32-158.19-267.71-327.16-253.48c-185.33,15.6-298.92,169.71-296.04,330.03
			c3.74,208.02,128.43,339.2,348.13,261.07C665.83,669.63,799.01,537.01,781.67,388.63z M508.99,698.43
			c-209.45,73.89-328.12-49.53-331.44-245.5c-2.56-151.03,105.86-296.36,282.49-311.3c161.04-13.62,295.02,97.72,311.47,238.37
			C787.86,519.77,660.79,644.88,508.99,698.43z"/>
		<path class="st1" d="M460.03,141.64c-176.62,14.94-285.05,160.27-282.49,311.3c3.32,195.97,122,319.38,331.44,245.5
			c151.81-53.55,278.87-178.66,262.52-318.42C755.05,239.36,621.07,128.01,460.03,141.64z"/>
		<path class="st2" d="M686.41,489.11c-28.33-64.78-128.29-79.43-223.27-32.73c-94.98,46.7-149.01,137.08-120.68,201.86
			c28.33,64.78,128.29,79.43,223.27,32.73C660.71,644.27,714.74,553.89,686.41,489.11z M564.21,659.04
			c-84.04,41.33-172.04,29.4-196.55-26.65c-24.51-56.04,23.75-134.98,107.79-176.3c84.04-41.33,172.04-29.4,196.55,26.65
			C696.51,538.78,648.25,617.72,564.21,659.04z"/>
		
			<ellipse transform="matrix(0.8823 -0.4707 0.4707 0.8823 -201.268 310.3396)" class="st4" cx="519.83" cy="557.57" rx="169.7" ry="110.56"/>
		<g class="st5">
			<g class="st6">
				<path class="st7" d="M428.01,394.27c5.9-0.99,4.16-10.95-1.73-9.96C420.38,385.3,422.12,395.25,428.01,394.27L428.01,394.27z"/>
			</g>
			<g class="st5">
				<path class="st7" d="M478.65,437.66c5.9-0.99,4.16-10.95-1.73-9.96C471.03,428.69,472.77,438.65,478.65,437.66L478.65,437.66z"
					/>
			</g>
			<g class="st5">
				<path class="st7" d="M396.55,411.8c4.84-0.81,3.41-8.96-1.41-8.15C390.3,404.47,391.73,412.61,396.55,411.8L396.55,411.8z"/>
			</g>
			<g class="st8">
				<path class="st7" d="M497.49,385.1c4.84-0.81,3.41-8.96-1.41-8.15C491.24,377.76,492.66,385.91,497.49,385.1L497.49,385.1z"/>
			</g>
			<g>
				<path class="st7" d="M469.54,402.22c4.29-0.72,3.02-7.96-1.26-7.24C463.98,395.69,465.25,402.93,469.54,402.22L469.54,402.22z"
					/>
			</g>
			<g>
				<path class="st7" d="M415.3,473.58c4.29-0.72,3.02-7.96-1.26-7.24C409.75,467.05,411.01,474.3,415.3,473.58L415.3,473.58z"/>
			</g>
			<g class="st8">
				<path class="st7" d="M510.24,438.58c4.29-0.72,3.02-7.96-1.26-7.24C504.68,432.06,505.95,439.3,510.24,438.58L510.24,438.58z"/>
			</g>
			<g class="st9">
				<path class="st7" d="M501.29,421.58c6.96-1.17,4.91-12.88-2.03-11.71C492.3,411.04,494.35,422.75,501.29,421.58L501.29,421.58z"
					/>
			</g>
			<g class="st6">
				<path class="st7" d="M413.77,446.57c6.84-1.15,4.82-12.69-2.01-11.54C404.93,436.18,406.94,447.72,413.77,446.57L413.77,446.57z
					"/>
			</g>
			<path class="st7" d="M469.88,361.93c-0.4-1.29-2.5-1.63-3.6-1.01c-0.93,0.53-1.79,1.69-1.47,2.87
				C465.76,367.37,471.36,366.73,469.88,361.93z"/>
			<path class="st7" d="M446.29,445.25c-0.48-1.54-2.98-1.95-4.3-1.2c-1.11,0.63-2.13,2.01-1.75,3.43
				C441.37,451.75,448.06,450.99,446.29,445.25z"/>
			<g class="st5">
				<path class="st7" d="M444.04,423.73c5.65-0.95,3.99-10.45-1.65-9.51C436.74,415.17,438.4,424.67,444.04,423.73L444.04,423.73z"
					/>
			</g>
		</g>
		<g>
			<path class="st10" d="M507.35,421c-11.36,0.06-22.02,2.66-31.84,5.59l-12.65,4.98c-34.16,11.35-55.67,39.44-53.61,58.45
				c2.34,21.59,36.93,45.81,83.86,35.95c42.46-43.77,39.84-79.97,39.84-79.97C534.98,419.03,507.35,421,507.35,421z M494.38,513.15
				c-43.33,8.53-75.27-12.43-77.43-31.11c-1.9-16.45,17.97-40.75,49.51-50.57l11.68-4.31c9.07-2.54,18.91-4.78,29.4-4.84
				c0,0,25.51-1.71,23.63,21.64C531.17,443.96,533.58,475.28,494.38,513.15z"/>
			<path class="st11" d="M507.54,422.32c-10.49,0.06-20.33,2.3-29.4,4.84l-11.68,4.31c-31.54,9.82-51.41,34.12-49.51,50.57
				c2.16,18.68,34.1,39.63,77.43,31.11c39.2-37.87,36.79-69.19,36.79-69.19C533.05,420.62,507.54,422.32,507.54,422.32z"/>
			
				<ellipse transform="matrix(0.8883 -0.4593 0.4593 0.8883 -157.9897 264.2429)" class="st12" cx="464.2" cy="456.9" rx="31.68" ry="14.82"/>
		</g>
		<path class="st10" d="M579.94,560.32c-0.33-1.14-1.48-1.78-2.55-1.43c-1.07,0.35-1.68,1.56-1.35,2.7
			c3.23,11.1-1.92,22.93-11.99,27.52l-14.8,6.74c-5.22,2.38-11.03,2.45-16.35,0.2c-4.5-1.9-8.16-5.27-10.54-9.61
			c-0.26-0.88-0.56-1.76-0.91-2.63l-26.83-65.36l-3.68-9.08c-0.34-0.83-1.11-1.32-1.91-1.31c-0.28,0-0.56,0.05-0.82,0.18
			c-1.03,0.47-1.5,1.75-1.05,2.84l3.73,9.08l26.55,65.51c0.35,0.86,0.75,1.68,1.17,2.49c1.34,4.81,1.15,9.94-0.62,14.71
			c-2.1,5.65-6.12,10.09-11.34,12.5l-14.77,6.82c-10.05,4.64-21.71,0.52-27.12-9.58c-0.56-1.04-1.8-1.4-2.78-0.81
			c-0.97,0.59-1.32,1.91-0.76,2.94c6.45,12.03,20.33,16.93,32.29,11.41l14.77-6.82c3.26-1.5,6.07-3.65,8.37-6.24
			c4.38-4.94,6.84-11.49,6.91-18.26c4.7,4.59,10.9,7.18,17.3,7.18c3.35,0,6.75-0.7,10.02-2.19l14.8-6.74
			C577.65,587.62,583.79,573.54,579.94,560.32z"/>
		<path class="st10" d="M479.88,626.48c0,0,6.71,42.71,62.3,28.47c0,0,50.48-20.79,27.39-67.2l-15.04,7.69l-7.79,3.7h-5.91H536
			l-4.73-1.71l-7.71-2.6l0.9-2.53l-3.43-2.56v9.68l-1.19,5.98l-2.89,4.84l-5.91,4.84l-9.4,4.56l-11.28,5.41l-7.79,1.42H479.88z"/>
		<path class="st13" d="M500.15,649.68c0,0,2.82-25.06,33.56-19.93c0,0,11.81-27.19,36.79-13.38
			C570.5,616.37,559.29,670.82,500.15,649.68z"/>
	</g>
	<path class="st14" d="M236.53,323.14c22.3,4.71,54.74,9.53,78.31,25.32c-4.51,7.84-15.99,7.62-23.09,13.73
		c-2.39,11.84,8.72,21.95,6.04,33.83c-33.24-17.98-66.98-40.4-98.51-43.49c12.32,31.23,38.37,60.69,63.96,90.22
		c-10.06,5.06-21.46-1.63-31.79,1.01c-4.5,9.81-3.12,18.86-6.89,28.57c-21.69-21.58-32.69-51.16-42.85-76.78
		c-3.26,10.16-4.75,20.09-13.86,31c-0.8-0.62-1.39,0.52-2.06,1.03c-10.88,3.1-25.69-19.23-41.95-30.76
		c-10.24-7.26-22.31-11.61-15.81-24.12c9.33-17.94,39.11-31.87,51.66-36.62c0.29-8.94,10.85-14.62,14.27-21.06
		c5.09-9.56,3.45-25.52,8.71-38.03c5.84-13.87,15.22-31.82,27.59-25.07c6.2,3.38,10.81,13.07,20.55,21.2
		c13.15,10.97,28.11,13.82,29.19,27.01C255.37,312.23,244.24,317.3,236.53,323.14z"/>
	<path class="st15" d="M203.36,338.34c2.46,2.1,2.89,5.86,0.96,8.4l-7.47,9.83c-1.93,2.54-5.48,2.89-7.94,0.8L165.3,337.2
		c-2.46-2.1-2.89-5.86-0.96-8.4l7.47-9.83c1.93-2.54,5.48-2.89,7.94-0.8L203.36,338.34z"/>
	
		<ellipse transform="matrix(0.5429 -0.8398 0.8398 0.5429 -171.7569 313.1304)" class="st15" cx="201.77" cy="314.35" rx="12.34" ry="6.69"/>
	<path class="st15" d="M173.4,351.05c2.98,1.84,2.86,7.95-0.26,13.66c-3.13,5.71-8.08,8.85-11.06,7.01
		c-2.98-1.84-2.86-7.95,0.26-13.66C165.47,352.36,170.42,349.22,173.4,351.05z"/>
</g>
<g>
	<g>
		<path class="st16" d="M570.69,303.44c0,0-0.34-0.07-0.95-0.2c-0.59-0.15-1.49-0.3-2.64-0.48c-2.3-0.36-5.63-0.68-9.65-0.88
			c-4.05-0.16-8.82-0.19-13.95-0.09c-2.57,0.03-5.26,0.21-7.96,0.29c-2.71,0.09-5.49,0.3-8.27,0.52c-2.77,0.18-5.54,0.38-8.29,0.7
			c-2.74,0.33-5.44,0.52-8.07,0.91c-5.24,0.7-10.16,1.47-14.39,2.36c-4.22,0.9-7.76,1.87-10.27,2.71c-0.63,0.21-1.18,0.4-1.68,0.57
			c-0.49,0.19-0.89,0.36-1.23,0.49c-0.68,0.26-1.05,0.41-1.05,0.41s0.29-0.25,0.82-0.71c0.28-0.23,0.63-0.51,1.03-0.85
			c0.42-0.32,0.92-0.66,1.47-1.07c2.25-1.56,5.77-3.56,10.21-5.38c4.44-1.87,9.75-3.49,15.42-4.75c2.84-0.59,5.77-1.24,8.72-1.59
			c2.96-0.42,5.93-0.73,8.91-1.01c2.95-0.15,5.89-0.28,8.74-0.28c2.87-0.06,5.61,0.16,8.27,0.33c5.28,0.42,10.04,1.25,13.85,2.38
			c3.84,1.08,6.69,2.46,8.46,3.61c0.88,0.58,1.52,1.08,1.91,1.45C570.48,303.25,570.69,303.44,570.69,303.44z"/>
	</g>
	<g>
		<path class="st16" d="M285.22,456.53c0,0-0.04-0.44-0.1-1.28c-0.08-0.85-0.09-2.08-0.03-3.66c0.13-3.15,0.76-7.68,2.27-12.83
			c1.47-5.17,3.8-10.92,6.82-16.72c1.57-2.85,3.12-5.86,5.02-8.66c1.85-2.84,3.85-5.63,5.87-8.39c2.16-2.64,4.32-5.26,6.6-7.71
			c2.2-2.52,4.66-4.66,7-6.79c4.74-4.15,9.56-7.51,14.04-9.69c4.43-2.26,8.45-3.35,11.25-3.71c0.71-0.08,1.33-0.13,1.89-0.2
			c0.55,0,1.02,0,1.4,0c0.74,0.02,1.14,0.04,1.14,0.04s-0.35,0.19-1.03,0.56c-0.33,0.17-0.74,0.38-1.2,0.64
			c-0.47,0.29-0.99,0.62-1.59,0.99c-2.33,1.49-5.46,3.85-8.96,7c-3.49,3.15-7.32,7.14-11.3,11.52c-2.03,2.18-3.92,4.64-5.98,6.97
			c-2.05,2.38-4,4.91-5.94,7.45c-1.98,2.51-3.95,5.04-5.76,7.64c-1.82,2.6-3.71,5.08-5.38,7.6c-3.38,5.03-6.42,9.84-8.88,14.08
			c-2.42,4.28-4.27,7.99-5.43,10.72c-0.58,1.37-1.02,2.46-1.28,3.22C285.37,456.11,285.22,456.53,285.22,456.53z"/>
	</g>
	<g>
		<path class="st17" d="M294.95,549.93c33.83-10.42,69.83,12.5,79.12,50.39c9.29,37.9-11.18,78.24-45,88.64
			c-33.85,10.42-69.82-12.5-79.12-50.4C240.64,600.67,261.13,560.34,294.95,549.93z"/>
		<path class="st18" d="M298.63,564.93c26.53-8.17,54.73,9.8,62.04,39.54c7.3,29.75-8.76,61.32-35.29,69.52
			c-26.52,8.13-54.74-9.82-62.04-39.56C256.06,604.72,272.11,573.11,298.63,564.93z"/>
		<path class="st19" d="M303.6,577.76c20.02-6.17,41.35,7.42,46.84,29.85c5.51,22.46-6.61,46.31-26.64,52.48
			c-20.02,6.16-41.31-7.43-46.83-29.83C271.45,607.81,283.58,583.94,303.6,577.76z"/>
	</g>
	<g>
		<path class="st17" d="M665.53,387.64c30.97-9.55,63.92,11.46,72.45,46.14c8.52,34.71-10.23,71.62-41.22,81.16
			c-30.97,9.54-63.92-11.45-72.43-46.17C615.81,434.08,634.55,397.18,665.53,387.64z"/>
		<path class="st18" d="M668.89,401.37c24.3-7.49,50.13,8.99,56.82,36.21c6.66,27.2-8.05,56.13-32.32,63.63
			c-24.29,7.48-50.13-9-56.81-36.2C629.91,437.8,644.61,408.84,668.89,401.37z"/>
		<path class="st19" d="M673.46,413.14c18.32-5.67,37.84,6.75,42.87,27.31c5.04,20.55-6.05,42.39-24.38,48.04
			c-18.35,5.63-37.85-6.78-42.89-27.32C644.03,440.62,655.12,418.78,673.46,413.14z"/>
	</g>
	<g>
		<g>
			<path class="st20" d="M376.59,519.92c6.9-11.24,15.47-21.35,25.57-29.12c0.06-5.87-0.97-11.97-2.64-17.96
				c-1.09-3.94-2.19-8.06-3.42-12.18c-3.61-12.09-8.32-24.22-17.22-32.01c-3.29-2.88-7.08-5.18-11.2-6.2
				c-29.84-7.42-33.37,32.37-28.94,55.36C341.59,492.67,359.31,517.35,376.59,519.92z"/>
			<path class="st21" d="M380.48,518.64c6.04-10.01,13.57-18.99,22.45-25.89c0.04-5.24-0.9-10.69-2.38-16.04
				c-0.98-3.52-1.96-7.2-3.06-10.88c-3.22-10.81-7.41-21.65-15.28-28.63c-2.91-2.58-6.26-4.65-9.9-5.58
				c-26.33-6.73-29.31,28.76-25.34,49.29C349.54,494.19,365.24,516.28,380.48,518.64z"/>
			<path class="st12" d="M368.26,459.85c-1.83-2.72-2.61-6.53-1.76-9.73c0.27-1.74,0.91-3.37,2.02-4.85
				c1.03-1.44,2.37-2.25,3.81-2.71c2.95-1.64,6.77-1.3,9.43,1.22c0.67,0.61,1.16,1.33,1.58,2.09c0.38,0.44,0.72,0.88,1.07,1.36
				c1.02,0.9,1.94,1.97,2.58,3.24c1.16,2.31,1.82,5,1.15,7.64c-0.51,2.09-1.42,3.65-2.63,4.93c-1.28,1.88-3.32,2.97-5.45,3.33
				c-1.56,0.53-3.21,0.69-4.78,0.1c-0.69-0.19-1.35-0.47-1.98-0.82c-0.78-0.42-3.1-2.21-0.82-0.66c-1.45-0.98-2.35-1.92-3.37-3.5
				C368.77,460.98,368.49,460.4,368.26,459.85z"/>
			<path class="st12" d="M370.33,492.05c6.47-2.35,9.76,8.88,3.3,11.25C367.15,505.68,363.85,494.41,370.33,492.05z"/>
		</g>
		<g>
			<path class="st21" d="M329.29,470.08c0,0,2.05-2.82,5.42-6.71c1.67-1.96,3.68-4.17,5.87-6.49c1.11-1.14,2.22-2.36,3.42-3.53
				c1.18-1.18,2.39-2.37,3.59-3.57c1.23-1.16,2.46-2.32,3.67-3.46c1.2-1.15,2.45-2.21,3.62-3.27c2.37-2.1,4.62-4,6.59-5.56
				c3.92-3.17,6.72-5.02,6.72-5.02s-2.16,2.72-5.62,6.48c-1.72,1.9-3.76,4.06-5.99,6.33c-1.12,1.12-2.25,2.33-3.44,3.48
				c-1.19,1.17-2.39,2.35-3.6,3.54c-1.22,1.16-2.45,2.33-3.65,3.47c-1.2,1.15-2.42,2.23-3.58,3.31c-2.33,2.13-4.54,4.08-6.46,5.72
				C332,468.08,329.29,470.08,329.29,470.08z"/>
		</g>
		<g>
			<path class="st21" d="M332.6,481.5c0,0,1.04-2.33,2.7-5.65c0.82-1.66,1.78-3.59,2.8-5.66c0.5-1.04,1.02-2.11,1.55-3.19
				c0.55-1.07,1.06-2.19,1.58-3.3c0.53-1.11,1.07-2.21,1.56-3.31c0.51-1.1,1.01-2.18,1.5-3.22c0.96-2.11,1.86-4.07,2.63-5.77
				c1.54-3.39,2.68-5.66,2.68-5.66s-0.2,2.6-1.1,6.35c-0.42,1.88-1.06,4.03-1.84,6.29c-0.42,1.11-0.8,2.3-1.31,3.43
				c-0.48,1.15-1,2.3-1.52,3.46c-0.57,1.12-1.13,2.25-1.72,3.34c-0.56,1.1-1.22,2.12-1.81,3.13c-1.24,1.98-2.47,3.77-3.63,5.22
				C334.42,479.86,332.6,481.5,332.6,481.5z"/>
		</g>
		<g>
			<path class="st21" d="M371.34,529.27c0,0,1.55-3.22,4.37-7.66c1.4-2.23,3.12-4.77,5.06-7.38c0.99-1.3,1.96-2.67,3.11-3.95
				c1.12-1.3,2.26-2.62,3.4-3.94c1.12-1.33,2.43-2.5,3.68-3.63c1.25-1.14,2.56-2.14,3.79-3.13c2.48-1.95,4.83-3.7,6.88-5.15
				c4.08-2.94,6.95-4.66,6.95-4.66s-2.28,2.61-5.93,6.18c-1.82,1.8-3.98,3.84-6.33,5.96c-1.15,1.06-2.35,2.16-3.56,3.28
				c-1.19,1.13-2.39,2.24-3.46,3.57c-1.12,1.25-2.25,2.5-3.35,3.73c-1.12,1.21-2.2,2.47-3.24,3.69c-2.08,2.43-4.03,4.7-5.7,6.65
				C373.67,526.72,371.34,529.27,371.34,529.27z"/>
		</g>
	</g>
	<g>
		<g>
			<path class="st20" d="M544.94,429c0.13-0.03,1.66,0.64,1.79,0.62c10.96-2.04,20.45-2.03,31.56-0.92
				c10.19-15.94,5.02-50.45-4-62.57c-13.39-18.02-43.32-39.55-56.13-9.21c-2.68,6.34-2.9,13.71-1.84,20.55
				c1.38,8.9,5.82,16.69,9.77,24.43c0.54,1.05,1.08,2.1,1.63,3.15c2.65,5.01,5.53,9.93,8.82,14.41
				C539.42,423.38,541.32,426.22,544.94,429z"/>
			<path class="st21" d="M545.58,430.81c0.12-0.02,1.49,0.58,1.62,0.56c9.89-1.84,18.45-1.83,28.46-0.83
				c9.19-14.37,4.52-45.49-3.61-56.42c-12.08-16.25-39.06-35.66-50.61-8.3c-2.41,5.72-2.62,12.37-1.66,18.53
				c1.25,8.03,5.25,15.05,8.81,22.03c0.48,0.95,0.97,1.9,1.47,2.84c2.39,4.51,4.99,8.96,7.95,12.99
				C540.61,425.74,542.31,428.3,545.58,430.81z"/>
			<path class="st12" d="M541.41,381.65c-2.41-2.07-4.08-5.52-4.05-8.88c-0.15-1.76,0.06-3.53,0.76-5.29
				c0.65-1.71,1.74-2.93,3.03-3.78c2.46-2.49,6.23-3.31,9.42-1.66c0.79,0.41,1.45,0.95,2.04,1.56c0.47,0.31,0.92,0.62,1.37,0.98
				c1.22,0.54,2.36,1.32,3.29,2.36c1.67,1.88,2.97,4.29,2.96,7.05c0.01,2.17-0.49,3.96-1.35,5.57c-0.8,2.2-2.48,3.86-4.44,4.85
				c-1.39,0.97-2.96,1.61-4.62,1.54c-0.7,0-1.42-0.05-2.09-0.21c-0.88-0.16-3.54-1.22-0.98-0.39c-1.64-0.5-2.74-1.14-4.1-2.37
				C542.2,382.57,541.79,382.12,541.41,381.65z"/>
			<path class="st12" d="M545.33,411.73c6.06-4.52,12.38,6.05,6.31,10.56C545.58,426.79,539.24,416.23,545.33,411.73z"/>
		</g>
		<g>
			<path class="st21" d="M539.53,355.22c0,0,0.6,0.14,1.63,0.38c1.03,0.24,2.5,0.55,4.25,0.83c1.75,0.29,3.8,0.52,5.99,0.7
				c1.1,0.09,2.23,0.13,3.38,0.18c1.15,0.08,2.32,0.04,3.49,0.05c1.17-0.02,2.34,0,3.5-0.08c1.15-0.06,2.29-0.1,3.39-0.19
				c2.19-0.18,4.25-0.39,6.01-0.64c1.76-0.24,3.24-0.49,4.28-0.67c1.05-0.18,1.65-0.29,1.65-0.29s-0.54,0.32-1.47,0.88
				c-0.95,0.53-2.35,1.24-4.09,1.86c-1.73,0.66-3.82,1.23-6.08,1.64c-1.13,0.17-2.3,0.41-3.51,0.47c-1.2,0.12-2.43,0.14-3.65,0.2
				c-1.23-0.05-2.45-0.05-3.66-0.17c-1.21-0.06-2.38-0.28-3.52-0.46c-2.27-0.42-4.37-1-6.1-1.71c-1.74-0.66-3.13-1.43-4.06-2.01
				C540.05,355.57,539.53,355.22,539.53,355.22z"/>
		</g>
		<g>
			<path class="st21" d="M579.04,365.22c0,0-2.13,0.56-5.38,0.83c-1.63,0.14-3.54,0.19-5.61-0.02c-1.03-0.12-2.1-0.23-3.18-0.49
				c-1.09-0.25-2.14-0.56-3.2-0.89c-1.04-0.37-2.08-0.75-3.09-1.15c-1.02-0.38-1.98-0.87-2.92-1.3c-1.88-0.91-3.58-1.89-4.98-2.85
				c-1.41-0.95-2.51-1.88-3.23-2.6c-0.73-0.71-1.08-1.18-1.08-1.18s1.99,1,5.01,2.12c1.52,0.55,3.28,1.2,5.16,1.88
				c0.95,0.33,1.93,0.67,2.92,1.01c0.99,0.36,2,0.69,3.02,1.01c1,0.35,2.02,0.68,2.99,0.94c0.98,0.26,1.96,0.52,2.92,0.71
				c1.92,0.41,3.75,0.7,5.33,0.97C576.89,364.72,579.04,365.22,579.04,365.22z"/>
		</g>
		<g>
			<path class="st21" d="M536.47,431.52c0,0,0.16-0.11,0.46-0.32c0.3-0.22,0.76-0.47,1.37-0.77c1.22-0.58,3.07-1.16,5.31-1.54
				c2.24-0.4,4.87-0.63,7.66-0.72c1.4-0.03,2.81-0.12,4.28-0.11c1.46,0,2.95,0,4.43,0c1.48,0.04,2.97,0.07,4.43,0.11
				c1.46,0.02,2.9,0.13,4.29,0.19c2.78,0.15,5.38,0.35,7.61,0.58c4.45,0.44,7.42,1.01,7.42,1.01s-2.97,0.5-7.42,0.82
				c-2.23,0.18-4.82,0.32-7.6,0.39c-1.39,0.02-2.83,0.1-4.28,0.08c-1.46,0-2.94,0-4.42,0c-1.48-0.04-2.97-0.07-4.43-0.11
				c-1.46-0.06-2.9-0.11-4.3-0.17c-2.77-0.13-5.33-0.25-7.53-0.26c-2.19,0.01-4.02,0.11-5.29,0.33c-0.63,0.12-1.13,0.22-1.46,0.33
				C536.65,431.47,536.47,431.52,536.47,431.52z"/>
		</g>
	</g>
</g>
<g>
	<path class="st21" d="M535.07,353c0,0,0.22,0.09,0.62,0.27c0.41,0.17,0.98,0.47,1.75,0.73c1.51,0.59,3.7,1.25,6.34,1.62
		c2.63,0.37,5.72,0.37,8.85-0.31c1.55-0.39,3.14-0.89,4.6-1.73c1.45-0.83,2.88-1.82,4-3.2c1.17-1.36,2.28-2.87,3.24-4.45
		c0.95-1.59,1.86-3.19,2.56-4.86c1.49-3.29,2.35-6.7,2.67-9.72c0.33-3.03,0.03-5.67-0.39-7.46c-0.16-0.92-0.43-1.59-0.57-2.07
		c-0.15-0.48-0.23-0.73-0.23-0.73s0.11,0.24,0.31,0.69c0.2,0.46,0.54,1.11,0.8,2.02c0.61,1.77,1.19,4.51,1.05,7.74
		c-0.12,3.22-0.85,6.91-2.29,10.43c-0.69,1.78-1.56,3.52-2.55,5.18c-0.99,1.68-2.11,3.25-3.36,4.73c-1.28,1.52-2.86,2.6-4.46,3.48
		c-1.61,0.9-3.34,1.33-5,1.69c-3.36,0.58-6.6,0.35-9.3-0.3c-2.71-0.62-4.9-1.58-6.37-2.4c-0.75-0.37-1.3-0.76-1.68-0.99
		C535.28,353.13,535.07,353,535.07,353z"/>
</g>
<g>
	<path class="st21" d="M535.39,352.17c0,0,0.15,0.1,0.43,0.3c0.29,0.18,0.67,0.52,1.23,0.78c1.07,0.61,2.72,1.24,4.67,1.25
		c1.94,0.01,4.19-0.48,6.26-1.75c1.06-0.59,2.02-1.45,2.94-2.37c0.91-0.95,1.67-2.09,2.3-3.33c0.63-1.26,1.11-2.63,1.48-4.04
		c0.34-1.41,0.58-2.85,0.71-4.28c0.22-2.86,0.08-5.61-0.23-7.96c-0.31-2.35-0.72-4.31-1.06-5.67c-0.15-0.69-0.31-1.21-0.4-1.58
		c-0.09-0.37-0.14-0.56-0.14-0.56s0.08,0.19,0.22,0.53c0.14,0.35,0.36,0.86,0.59,1.52c0.49,1.32,1.1,3.26,1.58,5.65
		c0.49,2.39,0.8,5.26,0.66,8.3c-0.1,1.51-0.27,3.08-0.64,4.6c-0.38,1.52-0.89,3.01-1.56,4.39c-0.72,1.37-1.58,2.61-2.58,3.64
		c-1.02,1-2.11,1.86-3.28,2.46c-2.3,1.26-4.77,1.61-6.85,1.37c-2.09-0.22-3.77-1.12-4.8-1.91c-0.54-0.35-0.9-0.76-1.16-0.99
		C535.53,352.3,535.39,352.17,535.39,352.17z"/>
</g>
<g>
	<path class="st21" d="M537.24,353.33c0,0,0.4-0.4,1.1-1.1c0.17-0.18,0.38-0.35,0.57-0.58c0.19-0.24,0.39-0.49,0.6-0.77
		c0.21-0.27,0.44-0.56,0.68-0.86c0.22-0.32,0.43-0.69,0.66-1.05c0.96-1.43,1.75-3.36,2.46-5.47c0.29-1.1,0.62-2.21,0.79-3.41
		c0.26-1.17,0.31-2.42,0.44-3.65c0.01-1.25,0.1-2.49-0.03-3.73c-0.04-1.24-0.24-2.44-0.4-3.62c-0.47-2.32-1.04-4.49-1.82-6.23
		c-0.19-0.44-0.35-0.87-0.53-1.26c-0.2-0.38-0.4-0.74-0.58-1.08c-0.18-0.34-0.35-0.67-0.51-0.97c-0.17-0.29-0.35-0.53-0.5-0.77
		c-0.61-0.93-0.96-1.47-0.96-1.47s0.42,0.46,1.16,1.26c0.18,0.21,0.4,0.42,0.6,0.69c0.19,0.28,0.4,0.58,0.63,0.9
		c0.22,0.33,0.46,0.67,0.71,1.04c0.23,0.38,0.44,0.81,0.67,1.24c0.98,1.72,1.73,3.97,2.32,6.42c0.21,1.24,0.5,2.52,0.55,3.84
		c0.15,1.32,0.08,2.64,0.08,3.97c-0.15,1.3-0.22,2.63-0.51,3.87c-0.19,1.27-0.62,2.43-0.96,3.57c-0.85,2.19-1.83,4.13-2.98,5.48
		c-0.28,0.35-0.53,0.69-0.79,0.99c-0.28,0.27-0.55,0.53-0.81,0.77c-0.25,0.24-0.49,0.46-0.71,0.66c-0.23,0.19-0.47,0.33-0.66,0.47
		C537.71,353.02,537.24,353.33,537.24,353.33z"/>
</g>
<g>
	<path class="st21" d="M353.04,440.36c0,0-0.1,0.19-0.3,0.55c-0.2,0.35-0.47,0.91-0.88,1.53c-0.78,1.3-2.03,3.06-3.75,4.81
		c-1.72,1.74-3.91,3.46-6.41,4.67c-1.25,0.59-2.57,1.07-3.92,1.37c-1.35,0.27-2.73,0.39-4.1,0.34c-1.36-0.11-2.69-0.4-3.96-0.83
		c-1.26-0.46-2.45-1.1-3.54-1.83c-2.18-1.49-3.94-3.45-5.22-5.38c-1.28-1.94-2.09-3.82-2.56-5.2c-0.26-0.67-0.39-1.25-0.51-1.62
		c-0.11-0.38-0.16-0.58-0.16-0.58s0.08,0.18,0.23,0.53c0.16,0.34,0.35,0.87,0.67,1.47c0.59,1.24,1.55,2.92,2.9,4.63
		c1.36,1.69,3.13,3.4,5.24,4.7c1.05,0.66,2.21,1.15,3.39,1.59c1.2,0.39,2.45,0.63,3.72,0.72c1.27,0.07,2.57-0.02,3.84-0.26
		c1.27-0.28,2.52-0.63,3.72-1.15c2.39-1.02,4.54-2.49,6.28-3.99c1.73-1.52,3.07-3.06,3.95-4.21c0.46-0.55,0.78-1.05,1.01-1.37
		C352.92,440.54,353.04,440.36,353.04,440.36z"/>
</g>
<g>
	<path class="st21" d="M357.84,433.44c0,0-0.47,0.48-1.29,1.31c-0.21,0.2-0.43,0.45-0.7,0.67c-0.27,0.2-0.57,0.42-0.88,0.65
		c-0.32,0.23-0.66,0.47-1.01,0.73c-0.37,0.22-0.77,0.4-1.18,0.62c-1.64,0.92-3.7,1.4-5.91,1.6c-1.11-0.03-2.26,0.05-3.41-0.22
		c-1.17-0.13-2.31-0.58-3.47-0.92c-1.12-0.55-2.26-1-3.3-1.74c-1.09-0.61-2.04-1.51-2.99-2.3c-1.81-1.78-3.39-3.69-4.45-5.67
		c-0.27-0.48-0.55-0.93-0.78-1.39c-0.21-0.48-0.41-0.93-0.59-1.36c-0.18-0.43-0.35-0.82-0.51-1.19c-0.15-0.38-0.24-0.75-0.35-1.08
		c-0.39-1.31-0.61-2.05-0.61-2.05s0.31,0.68,0.84,1.88c0.14,0.29,0.26,0.64,0.44,0.98c0.19,0.33,0.39,0.69,0.6,1.07
		c0.21,0.38,0.44,0.79,0.68,1.22c0.26,0.41,0.55,0.8,0.84,1.23c1.14,1.76,2.74,3.42,4.5,5.01c0.93,0.7,1.86,1.47,2.89,2.04
		c0.99,0.69,2.08,1.09,3.14,1.6c1.09,0.34,2.17,0.79,3.28,0.93c1.09,0.27,2.18,0.29,3.23,0.37c2.1-0.07,4.08-0.32,5.71-0.99
		c0.41-0.15,0.81-0.28,1.18-0.43c0.36-0.19,0.71-0.37,1.03-0.55c0.33-0.17,0.63-0.33,0.92-0.47c0.28-0.16,0.52-0.36,0.74-0.51
		C357.32,433.81,357.84,433.44,357.84,433.44z"/>
</g>
<g>
	<path class="st21" d="M364.49,431.59c0,0-0.12,0.05-0.36,0.16c-0.24,0.09-0.58,0.28-1.03,0.39c-0.89,0.31-2.22,0.56-3.82,0.43
		c-1.59-0.14-3.45-0.69-5.3-1.81c-0.92-0.56-1.84-1.24-2.73-2.04c-0.88-0.82-1.73-1.74-2.53-2.74c-0.78-1.03-1.5-2.14-2.16-3.3
		c-0.64-1.17-1.2-2.4-1.67-3.64c-0.94-2.48-1.49-5.03-1.71-7.24c-0.22-2.21-0.14-4.08,0-5.35c0.05-0.64,0.15-1.13,0.2-1.46
		c0.06-0.33,0.08-0.51,0.08-0.51s0,0.18-0.01,0.52c0,0.34-0.04,0.84-0.02,1.47c0,1.26,0.11,3.06,0.48,5.12
		c0.38,2.06,1.02,4.38,1.98,6.65c0.47,1.14,1.06,2.23,1.66,3.33c0.62,1.07,1.32,2.1,2.05,3.05c0.74,0.95,1.53,1.83,2.34,2.61
		c0.83,0.76,1.66,1.48,2.51,2.05c1.7,1.16,3.41,1.87,4.91,2.23c1.5,0.34,2.8,0.35,3.7,0.25c0.45-0.01,0.8-0.11,1.05-0.14
		C364.36,431.61,364.49,431.59,364.49,431.59z"/>
</g>
</svg>
