<?xml version="1.0" encoding="utf-8"?>
<!-- Generator: Adobe Illustrator 23.0.5, SVG Export Plug-In . SVG Version: 6.00 Build 0)  -->
<svg version="1.1" id="Capa_1" xmlns="http://www.w3.org/2000/svg" xmlns:xlink="http://www.w3.org/1999/xlink" x="0px" y="0px"
	 viewBox="0 0 500 600" style="enable-background:new 0 0 500 600;" xml:space="preserve">
<style type="text/css">
	.st0{fill:#855933;}
	.st1{fill:#A1754D;}
	.st2{fill:#CFAD81;}
	.st3{fill:#8E623B;}
	.st4{fill:#C39B6D;}
	.st5{fill:#D2B89A;}
	.st6{fill:#8E613B;}
	.st7{opacity:0.7;}
	.st8{opacity:0.8;}
	.st9{fill:#963025;}
	.st10{opacity:0.6;}
	.st11{opacity:0.5;}
	.st12{fill:#2E1C14;}
	.st13{fill:#412819;}
	.st14{fill:#FFFFFF;}
	.st15{fill:#E95364;}
	.st16{fill-rule:evenodd;clip-rule:evenodd;fill:#ECCBBD;}
	.st17{fill-rule:evenodd;clip-rule:evenodd;fill:#E8BBAC;}
	.st18{fill:#714013;}
	.st19{opacity:0.1;fill:#EC628E;}
	.st20{opacity:0.07;fill:#EC628E;}
	.st21{opacity:0.15;fill:#EC628E;}
	.st22{opacity:0.1;fill:#13110C;}
	.st23{fill:#26231E;}
</style>
<g>
	<g>
		<path class="st0" d="M201.37,401.83c0,0,0.19,0.55,0.46,1.55c1.85,7,7.28,36.2-24.56,55.34c0,0-38.01-24.31-69.06,12.89
			c0,0-25.26,26.5-9.73,78.53c0,0,9.04,47.41,56.78,46.68c0,0,38.93,0,76.94-34.52c0,0,2.24-0.32,2.09,5.43
			c0,0,0.12,34.44,26.07,27.03c0,0,3.48-0.97,4.87-3.28c0,0,7.18,4.86,14.6,0.97c0,0,8.92-4.62,10.43-7.9
			c0,0-0.35,12.52,20.74,14.22c0,0,7.65-0.24,12.28-7.05c0,0,12.51,8.02,24.57-15.56c0,0,1.97-4.01,1.39-10.45
			c0,0,23.17,22.12,58.63,30.63c0,0,13.44,1.22,17.84,0.49c0,0,22.94-1.95,33.6-18.23c0,0,12.98-14.83,18.31-43.52
			c0,0,7.18-36.23-14.37-63.94c0,0-23.64-33.31-66.97-13.61c0,0-12.98-8.27-17.61-40.12c0,0-6.03-33.24-13.67-44.22l-16.69-10.24
			c0,0-20.86,9.3-22.25,10.24c-1.39,0.94-25.08,3.13-25.08,3.13s-63.6,0.41-66.69,3.32c-3.09,2.92-32.72,22.75-32.72,22.75"/>
		<g>
			<path class="st1" d="M174.52,457.19c0,0,20.68,15.63,24.08,23.65c0,0,20.1,29.06,12.05,65.64c0,0-8.81,30.63-39.17,37.2
				c0,0-24.8,9.72-51.68-5.35c0,0-16.45-14.59-22.25-36.23c0,0-6.32-20.11-2.47-41.54c0,0,1.91-17.5,18.41-34.66
				c0,0,13.41-15.98,38.94-14.87C152.44,451.04,168.61,452.5,174.52,457.19z"/>
			<g>
				
					<ellipse transform="matrix(0.1604 -0.9871 0.9871 0.1604 -339.9344 598.0986)" class="st2" cx="181.59" cy="498.86" rx="17.25" ry="12.9"/>
				
					<ellipse transform="matrix(0.0288 -0.9996 0.9996 0.0288 -337.3898 625.3284)" class="st2" cx="153.1" cy="486.28" rx="16.86" ry="12.81"/>
				
					<ellipse transform="matrix(0.9462 -0.3236 0.3236 0.9462 -153.7325 67.4945)" class="st2" cx="126.11" cy="496.06" rx="12.8" ry="16.59"/>
				
					<ellipse transform="matrix(0.7789 -0.6271 0.6271 0.7789 -301.6338 184.845)" class="st2" cx="111.36" cy="520.25" rx="11.61" ry="14.59"/>
				<path class="st2" d="M126.11,544.06c0,0,3.19-26.26,26.99-27.47c0,0,24.64-0.97,33.44,23.34c0,0,6.03,20.91-8.57,24.07
					c0,0-7.18,1.86-15.68-3.81c0,0-5.1-2.11-7.42,3.24c0,0-3.71,11.51-14.06,10.21C140.81,573.64,122.53,573.96,126.11,544.06z"/>
			</g>
		</g>
		<g>
			<path class="st1" d="M397.24,457.96c0,0-20.68,15.63-24.08,23.65c0,0-20.1,29.06-12.05,65.64c0,0,8.81,30.63,39.17,37.2
				c0,0,24.8,9.72,51.68-5.35c0,0,16.45-14.59,22.25-36.23c0,0,6.32-20.11,2.47-41.54c0,0-1.91-17.5-18.41-34.66
				c0,0-13.41-15.98-38.94-14.87C419.32,451.81,403.14,453.27,397.24,457.96z"/>
			<g>
				
					<ellipse transform="matrix(0.9871 -0.1604 0.1604 0.9871 -75.0707 69.0339)" class="st2" cx="390.17" cy="499.62" rx="12.9" ry="17.25"/>
				
					<ellipse transform="matrix(0.9996 -0.0288 0.0288 0.9996 -13.8404 12.2477)" class="st2" cx="418.66" cy="487.05" rx="12.81" ry="16.86"/>
				
					<ellipse transform="matrix(0.3236 -0.9462 0.9462 0.3236 -168.6489 757.7338)" class="st2" cx="445.65" cy="496.82" rx="16.59" ry="12.8"/>
				
					<ellipse transform="matrix(0.6271 -0.7789 0.7789 0.6271 -234.1612 552.9048)" class="st2" cx="460.39" cy="521.02" rx="14.59" ry="11.61"/>
				<path class="st2" d="M445.65,544.82c0,0-3.19-26.26-26.99-27.47c0,0-24.64-0.97-33.44,23.34c0,0-6.03,20.91,8.57,24.07
					c0,0,7.18,1.86,15.68-3.81c0,0,5.1-2.11,7.42,3.24c0,0,3.71,11.51,14.06,10.21C430.95,574.4,449.23,574.73,445.65,544.82z"/>
			</g>
		</g>
		<path class="st1" d="M215.12,506.05c0,0-10.98-36.26-37.16-47.75c0,0,27.05-14.39,25.34-45.04l27.73-20.92l29.43-5.59l50.19-3.89
			l26.83-4.86c0,0,5.25-5.77,6.18-4.83c0.93,0.94,7.11,0,7.11,0h3.4h10.81c0,0,6.8,12.63,10.18,28.14c0,0,4.94,19.87,4.74,23.2
			c0,0,4.7,24.64,16.37,32.99c0,0-29.66,14.43-39.4,48.54c0,0-0.23-87.93-10.66-94.74c0,0,11.05,49.25,4.56,106.03
			c0,0-2.01,23.55-4.02,35.87c0,0,4.23,11.84,1.84,20.73c0,0-1.11,5.86-9.51,14.43c0,0-7.01,7.59-15.81,3.34
			c0,0,1.74-18.23-2.67-25.65c0,0,3.13,18.72-2.09,29.42c0,0-1.19,2.63-6.99,3.24c0,0-19.78-0.28-21.29-14.18
			c0,0-0.35-12.93,7.15-22.98c0,0-9.47,6.69-10.28,23.22c0,0-18.07-5.11-11.7-26.5c0,0,4.91-10.25,6.6-13.01
			c0,0,11.59-28.2,12.98-44.25c0,0,2.68-66.29,5.98-76.99c0,0-12.77,58.51-12.77,72.78c0,0-5.72-6.97-7.11-15.97l-20.16-72.25
			l-1.39,3.2l8.81,56.16c0,0,7.65,42.06,15.76,48.14c0,0-16.14,29.82-16.76,33.71c0,0-9.5,32.09,12.48,42.63
			c0,0-6.84,4.13-14.6-0.97c0,0-9.73-8.63-11.01-21.64c0,0-1.17,13.8,8.97,23.62c0,0-26.12,14.7-28.9-26.78c0,0,0.39-3.72-2.09-4.37
			c0,0-16.45-103.9-15.53-120.1C216.67,442.19,214.81,485.3,215.12,506.05z"/>
		<g>
			<g>
				<path class="st3" d="M153.41,207.49c-1.16-39.87-31.88-76.88-71.11-74.97c-38.51,1.87-68.64,32.74-71.11,74.97
					c-2.42,41.33,30.75,79.36,71.11,74.97C121.36,278.2,154.61,248.87,153.41,207.49z M83.34,273.46
					c-37.78,4.06-68.82-31.04-66.56-69.18c2.31-38.97,30.51-67.45,66.56-69.18c36.72-1.76,65.47,32.39,66.56,69.18
					C151.02,242.47,119.9,269.54,83.34,273.46z"/>
				<path class="st1" d="M149.9,204.28c-1.09-36.79-29.84-70.94-66.56-69.18c-36.04,1.73-64.24,30.21-66.56,69.18
					c-2.26,38.13,28.78,73.24,66.56,69.18C119.9,269.54,151.02,242.47,149.9,204.28z M91.8,263.25c-27.9,3-50.82-22.98-49.14-51.2
					c1.71-28.84,22.5-51.16,49.14-51.21c27.07-0.05,46.69,24.93,49.14,51.21C143.57,240.19,118.8,260.35,91.8,263.25z"/>
				<path class="st4" d="M140.94,212.05c-2.45-26.28-22.07-51.25-49.14-51.21c-26.64,0.05-47.44,22.36-49.14,51.21
					c-1.67,28.23,21.25,54.21,49.14,51.2C118.8,260.35,143.57,240.19,140.94,212.05z M92.32,260.11
					c-25.55,2.78-46.54-21.31-45.01-47.48c1.56-26.74,20.61-47.43,45.01-47.48c24.8-0.04,42.77,23.11,45.01,47.48
					C139.74,238.73,117.05,257.42,92.32,260.11z"/>
				<path class="st5" d="M92.32,165.16c-24.4,0.04-43.45,20.73-45.01,47.48c-1.53,26.17,19.46,50.26,45.01,47.48
					c24.73-2.69,47.42-21.38,45.01-47.48C135.09,188.27,117.12,165.12,92.32,165.16z"/>
			</g>
			<g>
				<path class="st3" d="M370.08,148.8c41.76,4.3,76.08-32.9,73.58-73.31c-2.56-41.3-33.73-71.48-73.58-73.31
					C329.48,0.31,297.7,36.5,296.5,75.49C295.25,115.96,329.66,144.64,370.08,148.8z M300.13,72.36
					C301.26,36.38,331,2.98,368.99,4.7c37.29,1.69,66.47,29.55,68.86,67.65c2.34,37.29-29.77,71.62-68.86,67.65
					C331.16,136.17,298.96,109.7,300.13,72.36z"/>
				<path class="st1" d="M368.99,140.01c39.09,3.97,71.21-30.36,68.86-67.65C435.47,34.25,406.29,6.4,368.99,4.7
					C331,2.98,301.26,36.38,300.13,72.36C298.96,109.7,331.16,136.17,368.99,140.01z M309.39,79.95
					c2.53-25.7,22.84-50.12,50.85-50.07c27.57,0.04,49.08,21.87,50.85,50.07c1.73,27.6-21.99,53.01-50.85,50.07
					C332.31,127.18,306.68,107.47,309.39,79.95z"/>
				<path class="st4" d="M360.24,130.02c28.86,2.94,52.58-22.47,50.85-50.07c-1.77-28.21-23.28-50.03-50.85-50.07
					c-28.01-0.05-48.31,24.38-50.85,50.07C306.68,107.47,332.31,127.18,360.24,130.02z M313.13,80.52
					c2.32-23.83,20.92-46.47,46.57-46.43c25.25,0.04,44.95,20.28,46.57,46.43c1.58,25.59-20.14,49.15-46.57,46.43
					C334.12,124.32,310.64,106.04,313.13,80.52z"/>
				<path class="st5" d="M359.7,34.1c25.25,0.04,44.95,20.28,46.57,46.43c1.58,25.59-20.14,49.15-46.57,46.43
					c-25.59-2.63-49.06-20.91-46.57-46.43C315.45,56.7,334.05,34.05,359.7,34.1z"/>
			</g>
		</g>
		<path class="st6" d="M454.74,219.92c-10.04-85-91.02-152.39-188.24-144.29C159.86,84.51,94.5,172.23,96.16,263.49
			c2.15,118.42,73.9,193.09,200.31,148.62C388.09,379.87,464.71,304.38,454.74,219.92z M297.84,396.27
			c-120.51,42.06-188.8-28.19-190.71-139.75c-1.47-85.97,60.91-168.7,162.54-177.21c92.66-7.75,169.75,55.63,179.22,135.69
			C458.3,294.57,385.19,365.79,297.84,396.27z"/>
		<path class="st1" d="M269.67,79.31c-101.63,8.51-164.01,91.23-162.54,177.21c1.91,111.56,70.19,181.81,190.71,139.75
			c87.35-30.48,160.46-101.7,151.05-181.26C439.42,134.94,362.33,71.56,269.67,79.31z"/>
		<path class="st2" d="M399.93,277.12c-16.3-36.88-73.81-45.22-128.46-18.63c-54.65,26.59-85.74,78.03-69.44,114.91
			c16.3,36.88,73.81,45.22,128.46,18.63S416.23,313.99,399.93,277.12z M329.61,373.85c-48.36,23.52-98.99,16.73-113.09-15.17
			c-14.1-31.9,13.67-76.84,62.02-100.36c48.36-23.52,98.99-16.73,113.09,15.17C405.74,305.39,377.97,350.32,329.61,373.85z"/>
		
			<ellipse transform="matrix(0.8873 -0.4611 0.4611 0.8873 -111.4941 175.8282)" class="st5" cx="304.08" cy="316.08" rx="97.41" ry="63.08"/>
		<g class="st7">
			<g class="st8">
				<path class="st9" d="M251.25,223.13c3.39-0.56,2.39-6.23-0.99-5.67C246.86,218.02,247.86,223.69,251.25,223.13L251.25,223.13z"
					/>
			</g>
			<g class="st7">
				<path class="st9" d="M280.39,247.83c3.39-0.56,2.39-6.23-0.99-5.67C276,242.72,277,248.39,280.39,247.83L280.39,247.83z"/>
			</g>
			<g class="st7">
				<path class="st9" d="M233.15,233.11c2.78-0.46,1.96-5.1-0.81-4.64C229.55,228.93,230.37,233.57,233.15,233.11L233.15,233.11z"/>
			</g>
			<g class="st10">
				<path class="st9" d="M291.23,217.91c2.78-0.46,1.96-5.1-0.81-4.64C287.63,213.73,288.45,218.37,291.23,217.91L291.23,217.91z"/>
			</g>
			<g>
				<path class="st9" d="M275.14,227.65c2.47-0.41,1.74-4.53-0.73-4.12C271.95,223.94,272.68,228.06,275.14,227.65L275.14,227.65z"
					/>
			</g>
			<g>
				<path class="st9" d="M243.94,268.27c2.47-0.41,1.74-4.53-0.73-4.12C240.74,264.56,241.47,268.68,243.94,268.27L243.94,268.27z"
					/>
			</g>
			<g class="st10">
				<path class="st9" d="M298.56,248.35c2.47-0.41,1.74-4.53-0.73-4.12C295.36,244.64,296.09,248.76,298.56,248.35L298.56,248.35z"
					/>
			</g>
			<g class="st11">
				<path class="st9" d="M293.41,238.67c4-0.66,2.83-7.33-1.17-6.67C288.24,232.67,289.42,239.34,293.41,238.67L293.41,238.67z"/>
			</g>
			<g class="st8">
				<path class="st9" d="M243.06,252.9c3.93-0.65,2.77-7.22-1.15-6.57C237.97,246.98,239.13,253.55,243.06,252.9L243.06,252.9z"/>
			</g>
			<path class="st9" d="M275.34,204.72c-0.23-0.74-1.44-0.93-2.07-0.57c-0.53,0.3-1.03,0.96-0.84,1.64
				C272.97,207.81,276.19,207.45,275.34,204.72z"/>
			<path class="st9" d="M261.76,252.15c-0.27-0.88-1.72-1.11-2.48-0.68c-0.64,0.36-1.23,1.15-1.01,1.95
				C258.94,255.85,262.78,255.41,261.76,252.15z"/>
			<g class="st7">
				<path class="st9" d="M260.47,239.9c3.25-0.54,2.29-5.95-0.95-5.41C256.27,235.02,257.23,240.43,260.47,239.9L260.47,239.9z"/>
			</g>
		</g>
		<g>
			<path class="st12" d="M296.9,238.35c-6.54,0.04-12.67,1.52-18.32,3.18l-7.28,2.84c-19.65,6.46-32.03,22.45-30.85,33.27
				c1.35,12.29,21.25,26.08,48.25,20.47c24.43-24.91,22.92-45.52,22.92-45.52C312.79,237.22,296.9,238.35,296.9,238.35z
				 M289.44,290.8c-24.93,4.85-43.31-7.07-44.55-17.71c-1.09-9.36,10.34-23.2,28.49-28.79l6.72-2.45
				c5.22-1.44,10.88-2.72,16.92-2.76c0,0,14.68-0.97,13.6,12.32C310.6,251.42,311.99,269.24,289.44,290.8z"/>
			<path class="st13" d="M297.01,239.1c-6.03,0.03-11.7,1.31-16.92,2.76l-6.72,2.45c-18.15,5.59-29.58,19.43-28.49,28.79
				c1.24,10.63,19.62,22.56,44.55,17.71c22.56-21.56,21.17-39.39,21.17-39.39C311.68,238.12,297.01,239.1,297.01,239.1z"/>
			
				<ellipse transform="matrix(0.8914 -0.4533 0.4533 0.8914 -87.7409 151.4301)" class="st14" cx="272.07" cy="258.78" rx="18.19" ry="8.46"/>
		</g>
		<path class="st12" d="M338.66,317.65c-0.19-0.65-0.85-1.01-1.47-0.81c-0.62,0.2-0.97,0.89-0.77,1.54
			c1.86,6.32-1.1,13.06-6.9,15.67l-8.51,3.84c-3.01,1.35-6.35,1.4-9.41,0.11c-2.59-1.08-4.69-3-6.06-5.47c-0.15-0.5-0.32-1-0.53-1.5
			l-15.44-37.2l-2.12-5.17c-0.19-0.47-0.64-0.75-1.1-0.74c-0.16,0-0.32,0.03-0.47,0.1c-0.59,0.27-0.86,0.99-0.61,1.62l2.15,5.17
			l15.28,37.29c0.2,0.49,0.43,0.96,0.67,1.42c0.77,2.74,0.66,5.66-0.35,8.37c-1.21,3.22-3.52,5.74-6.52,7.11l-8.5,3.88
			c-5.78,2.64-12.49,0.3-15.61-5.46c-0.32-0.59-1.04-0.8-1.6-0.46c-0.56,0.33-0.76,1.09-0.44,1.68c3.71,6.85,11.7,9.64,18.58,6.49
			l8.5-3.88c1.87-0.86,3.49-2.08,4.81-3.55c2.52-2.81,3.94-6.54,3.98-10.4c2.71,2.62,6.27,4.09,9.95,4.09c1.93,0,3.88-0.4,5.76-1.25
			l8.51-3.84C337.35,333.19,340.88,325.17,338.66,317.65z"/>
		<path class="st12" d="M281.09,355.31c0,0,3.86,24.31,35.84,16.21c0,0,29.05-11.83,15.76-38.25l-8.65,4.38l-4.48,2.11h-3.4h-2.78
			l-2.72-0.97l-4.44-1.48l0.52-1.44l-1.98-1.46v5.51l-0.68,3.4l-1.66,2.76l-3.4,2.76l-5.41,2.59l-6.49,3.08l-4.48,0.81H281.09z"/>
		<path class="st15" d="M292.76,368.52c0,0,1.62-14.26,19.31-11.35c0,0,6.8-15.48,21.17-7.62
			C333.24,349.56,326.79,380.55,292.76,368.52z"/>
	</g>
	<path class="st16" d="M141.07,182.64c12.83,2.68,31.5,5.43,45.06,14.41c-2.6,4.47-9.2,4.34-13.28,7.82
		c-1.37,6.74,5.02,12.5,3.47,19.26c-19.12-10.24-38.54-23-56.68-24.76c7.09,17.78,22.08,34.55,36.8,51.36
		c-5.79,2.88-12.35-0.93-18.29,0.57c-2.59,5.58-1.8,10.73-3.96,16.26c-12.48-12.28-18.81-29.12-24.65-43.71
		c-1.87,5.78-2.73,11.44-7.98,17.65c-0.46-0.35-0.8,0.3-1.18,0.59c-6.26,1.76-14.78-10.95-24.13-17.51
		c-5.89-4.13-12.84-6.61-9.09-13.73c5.37-10.21,22.5-18.14,29.72-20.85c0.17-5.09,6.24-8.33,8.21-11.99
		c2.93-5.44,1.98-14.53,5.01-21.65c3.36-7.9,8.76-18.11,15.88-14.27c3.57,1.93,6.22,7.44,11.82,12.07
		c7.57,6.25,16.17,7.87,16.8,15.38C151.91,176.42,145.51,179.31,141.07,182.64z"/>
	<path class="st17" d="M121.99,191.29c1.41,1.19,1.66,3.34,0.55,4.78l-4.3,5.6c-1.11,1.44-3.16,1.65-4.57,0.45l-13.58-11.48
		c-1.41-1.19-1.66-3.34-0.55-4.78l4.3-5.6c1.11-1.44,3.16-1.65,4.57-0.45L121.99,191.29z"/>
	
		<ellipse transform="matrix(0.5505 -0.8349 0.8349 0.5505 -93.8684 180.9355)" class="st17" cx="121.08" cy="177.63" rx="7.05" ry="3.83"/>
	<path class="st17" d="M104.75,198.53c1.72,1.04,1.65,4.53-0.15,7.78c-1.8,3.25-4.65,5.04-6.36,3.99c-1.72-1.04-1.65-4.53,0.15-7.78
		C100.19,199.27,103.04,197.48,104.75,198.53z"/>
</g>
<g>
	<g>
		<path class="st18" d="M333.34,171.42c0,0-0.19-0.04-0.55-0.11c-0.34-0.08-0.86-0.17-1.52-0.28c-1.32-0.2-3.24-0.39-5.55-0.5
			c-2.33-0.09-5.07-0.11-8.03-0.05c-1.48,0.02-3.03,0.12-4.58,0.17c-1.56,0.05-3.16,0.17-4.76,0.3c-1.59,0.1-3.19,0.22-4.77,0.4
			c-1.58,0.19-3.13,0.3-4.64,0.52c-3.02,0.4-5.85,0.84-8.28,1.35c-2.43,0.51-4.46,1.07-5.91,1.54c-0.36,0.12-0.68,0.23-0.97,0.32
			c-0.28,0.11-0.51,0.2-0.71,0.28c-0.39,0.15-0.6,0.23-0.6,0.23s0.17-0.14,0.47-0.4c0.16-0.13,0.36-0.29,0.6-0.48
			c0.24-0.18,0.53-0.38,0.85-0.61c1.29-0.89,3.32-2.03,5.87-3.06c2.55-1.06,5.61-1.99,8.87-2.7c1.63-0.34,3.32-0.71,5.02-0.91
			c1.7-0.24,3.41-0.41,5.13-0.58c1.7-0.08,3.39-0.16,5.03-0.16c1.65-0.04,3.23,0.09,4.76,0.19c3.04,0.24,5.78,0.71,7.97,1.35
			c2.21,0.62,3.85,1.4,4.87,2.05c0.51,0.33,0.87,0.61,1.1,0.82C333.22,171.31,333.34,171.42,333.34,171.42z"/>
	</g>
	<g>
		<path class="st18" d="M169.09,258.57c0,0-0.02-0.25-0.06-0.73c-0.05-0.48-0.05-1.18-0.02-2.09c0.08-1.79,0.44-4.37,1.31-7.3
			c0.85-2.94,2.19-6.21,3.93-9.52c0.9-1.62,1.8-3.34,2.89-4.93c1.06-1.62,2.22-3.21,3.38-4.77c1.24-1.5,2.49-2.99,3.8-4.39
			c1.27-1.43,2.68-2.65,4.02-3.86c2.73-2.36,5.5-4.27,8.08-5.52c2.55-1.29,4.86-1.91,6.48-2.11c0.41-0.05,0.77-0.08,1.08-0.11
			c0.32,0,0.59,0,0.8,0c0.43,0.01,0.65,0.03,0.65,0.03s-0.2,0.11-0.59,0.32c-0.19,0.1-0.43,0.22-0.69,0.37
			c-0.27,0.16-0.57,0.35-0.92,0.56c-1.34,0.85-3.14,2.19-5.15,3.99c-2.01,1.79-4.21,4.06-6.5,6.56c-1.17,1.24-2.26,2.64-3.44,3.97
			c-1.18,1.35-2.3,2.8-3.42,4.24c-1.14,1.43-2.27,2.87-3.31,4.35c-1.05,1.48-2.13,2.89-3.1,4.33c-1.94,2.86-3.69,5.6-5.11,8.01
			c-1.39,2.44-2.46,4.55-3.13,6.1c-0.33,0.78-0.59,1.4-0.74,1.83C169.18,258.33,169.09,258.57,169.09,258.57z"/>
	</g>
	<g>
		<path class="st19" d="M174.69,311.74c19.46-5.93,40.18,7.11,45.53,28.69c5.35,21.57-6.43,44.54-25.89,50.46
			c-19.48,5.93-40.17-7.11-45.53-28.69C143.44,340.62,155.23,317.66,174.69,311.74z"/>
		<path class="st20" d="M176.81,320.27c15.26-4.65,31.49,5.58,35.7,22.51c4.2,16.93-5.04,34.91-20.3,39.57
			c-15.26,4.63-31.49-5.59-35.7-22.52C152.31,342.93,161.55,324.93,176.81,320.27z"/>
		<path class="st21" d="M179.67,327.58c11.52-3.51,23.79,4.22,26.95,16.99c3.17,12.78-3.8,26.36-15.33,29.87
			c-11.52,3.51-23.77-4.23-26.95-16.98C161.17,344.68,168.15,331.1,179.67,327.58z"/>
	</g>
	<g>
		<path class="st19" d="M387.91,219.35c17.82-5.44,36.78,6.52,41.68,26.27c4.9,19.76-5.89,40.77-23.72,46.2
			c-17.82,5.43-36.78-6.52-41.68-26.28C359.3,245.79,370.09,224.78,387.91,219.35z"/>
		<path class="st20" d="M389.85,227.17c13.98-4.27,28.84,5.12,32.69,20.61c3.83,15.48-4.63,31.95-18.6,36.22
			c-13.97,4.26-28.84-5.12-32.68-20.61C367.42,247.91,375.88,231.42,389.85,227.17z"/>
		<path class="st21" d="M392.48,233.87c10.54-3.23,21.77,3.84,24.67,15.55c2.9,11.7-3.48,24.13-14.03,27.35
			c-10.56,3.21-21.78-3.86-24.68-15.55C375.54,249.51,381.92,237.08,392.48,233.87z"/>
	</g>
	<g>
		<g>
			<path class="st22" d="M221.66,294.65c3.97-6.4,8.9-12.16,14.71-16.58c0.04-3.34-0.56-6.82-1.52-10.23
				c-0.63-2.24-1.26-4.59-1.97-6.93c-2.08-6.88-4.79-13.79-9.91-18.22c-1.89-1.64-4.07-2.95-6.45-3.53
				c-17.17-4.22-19.2,18.43-16.65,31.51C201.53,279.14,211.72,293.19,221.66,294.65z"/>
			<path class="st23" d="M223.9,293.92c3.48-5.7,7.81-10.81,12.92-14.74c0.02-2.98-0.52-6.08-1.37-9.13c-0.56-2-1.13-4.1-1.76-6.19
				c-1.85-6.15-4.26-12.32-8.79-16.3c-1.68-1.47-3.6-2.64-5.69-3.17c-15.15-3.83-16.87,16.37-14.58,28.06
				C206.1,280,215.13,292.58,223.9,293.92z"/>
			<path class="st14" d="M216.87,260.46c-1.05-1.55-1.5-3.72-1.02-5.54c0.15-0.99,0.52-1.92,1.16-2.76
				c0.59-0.82,1.37-1.28,2.19-1.54c1.69-0.93,3.89-0.74,5.43,0.7c0.39,0.35,0.67,0.76,0.91,1.19c0.22,0.25,0.42,0.5,0.62,0.77
				c0.59,0.51,1.12,1.12,1.49,1.85c0.67,1.32,1.05,2.84,0.66,4.35c-0.29,1.19-0.81,2.08-1.52,2.8c-0.74,1.07-1.91,1.69-3.13,1.9
				c-0.9,0.3-1.84,0.39-2.75,0.06c-0.4-0.11-0.78-0.27-1.14-0.47c-0.45-0.24-1.78-1.26-0.47-0.37c-0.84-0.56-1.35-1.09-1.94-1.99
				C217.16,261.1,217,260.77,216.87,260.46z"/>
			<path class="st14" d="M218.06,278.79c3.72-1.34,5.62,5.06,1.9,6.4C216.23,286.54,214.33,280.13,218.06,278.79z"/>
		</g>
		<g>
			<path class="st23" d="M194.45,266.28c0,0,1.18-1.61,3.12-3.82c0.96-1.11,2.12-2.38,3.38-3.69c0.64-0.65,1.28-1.34,1.96-2.01
				c0.68-0.67,1.37-1.35,2.07-2.03c0.71-0.66,1.42-1.32,2.11-1.97c0.69-0.66,1.41-1.26,2.08-1.86c1.36-1.19,2.66-2.27,3.79-3.17
				c2.26-1.8,3.87-2.86,3.87-2.86s-1.24,1.55-3.24,3.69c-0.99,1.08-2.17,2.31-3.45,3.6c-0.64,0.64-1.29,1.32-1.98,1.98
				c-0.68,0.66-1.38,1.34-2.07,2.01c-0.7,0.66-1.41,1.32-2.1,1.98c-0.69,0.66-1.39,1.27-2.06,1.88c-1.34,1.22-2.61,2.32-3.72,3.25
				C196.01,265.14,194.45,266.28,194.45,266.28z"/>
		</g>
		<g>
			<path class="st23" d="M196.35,272.78c0,0,0.6-1.33,1.55-3.22c0.47-0.95,1.02-2.05,1.61-3.22c0.29-0.59,0.59-1.2,0.89-1.82
				c0.31-0.61,0.61-1.25,0.91-1.88c0.3-0.63,0.62-1.26,0.9-1.89c0.29-0.62,0.58-1.24,0.86-1.83c0.55-1.2,1.07-2.32,1.51-3.28
				c0.88-1.93,1.54-3.22,1.54-3.22s-0.11,1.48-0.63,3.61c-0.24,1.07-0.61,2.29-1.06,3.58c-0.24,0.63-0.46,1.31-0.75,1.95
				c-0.27,0.66-0.58,1.31-0.87,1.97c-0.33,0.64-0.65,1.28-0.99,1.9c-0.32,0.63-0.7,1.21-1.04,1.78c-0.71,1.13-1.42,2.15-2.09,2.97
				C197.4,271.85,196.35,272.78,196.35,272.78z"/>
		</g>
		<g>
			<path class="st23" d="M218.64,299.98c0,0,0.89-1.83,2.51-4.36c0.8-1.27,1.79-2.71,2.91-4.2c0.57-0.74,1.13-1.52,1.79-2.25
				c0.65-0.74,1.3-1.49,1.96-2.24c0.65-0.76,1.4-1.42,2.12-2.07c0.72-0.65,1.47-1.22,2.18-1.78c1.43-1.11,2.78-2.11,3.96-2.93
				c2.35-1.67,4-2.65,4-2.65s-1.31,1.49-3.41,3.52c-1.05,1.02-2.29,2.19-3.64,3.39c-0.66,0.61-1.35,1.23-2.05,1.87
				c-0.69,0.64-1.38,1.28-1.99,2.03c-0.65,0.71-1.29,1.42-1.93,2.12c-0.64,0.69-1.27,1.4-1.86,2.1c-1.2,1.38-2.32,2.68-3.28,3.79
				C219.99,298.53,218.64,299.98,218.64,299.98z"/>
		</g>
	</g>
	<g>
		<g>
			<path class="st22" d="M318.53,242.9c0.08-0.02,0.95,0.37,1.03,0.35c6.31-1.16,11.77-1.15,18.16-0.52
				c5.86-9.07,2.89-28.72-2.3-35.62c-7.71-10.26-24.92-22.51-32.29-5.24c-1.54,3.61-1.67,7.81-1.06,11.7
				c0.8,5.07,3.35,9.5,5.62,13.91c0.31,0.6,0.62,1.2,0.94,1.79c1.52,2.85,3.18,5.65,5.07,8.2
				C315.35,239.7,316.44,241.31,318.53,242.9z"/>
			<path class="st23" d="M318.9,243.93c0.07-0.01,0.86,0.33,0.93,0.32c5.69-1.05,10.61-1.04,16.38-0.47
				c5.29-8.18,2.6-25.9-2.08-32.12c-6.95-9.25-22.48-20.3-29.12-4.73c-1.39,3.25-1.51,7.04-0.95,10.55
				c0.72,4.57,3.02,8.57,5.07,12.54c0.28,0.54,0.56,1.08,0.85,1.62c1.37,2.57,2.87,5.1,4.58,7.4
				C316.04,241.04,317.02,242.5,318.9,243.93z"/>
			<path class="st14" d="M316.49,215.94c-1.39-1.18-2.35-3.14-2.33-5.05c-0.09-1,0.03-2.01,0.44-3.01c0.38-0.97,1-1.67,1.74-2.15
				c1.41-1.42,3.58-1.89,5.42-0.94c0.45,0.23,0.84,0.54,1.17,0.89c0.27,0.18,0.53,0.35,0.79,0.56c0.7,0.31,1.36,0.75,1.89,1.34
				c0.96,1.07,1.71,2.44,1.71,4.01c0.01,1.23-0.28,2.25-0.78,3.17c-0.46,1.25-1.43,2.2-2.56,2.76c-0.8,0.55-1.7,0.92-2.66,0.88
				c-0.4,0-0.82-0.03-1.21-0.12c-0.51-0.09-2.04-0.69-0.56-0.22c-0.94-0.28-1.57-0.65-2.36-1.35
				C316.95,216.47,316.72,216.21,316.49,215.94z"/>
			<path class="st14" d="M318.75,233.07c3.49-2.58,7.13,3.44,3.63,6.01C318.89,241.64,315.25,235.63,318.75,233.07z"/>
		</g>
		<g>
			<path class="st23" d="M315.41,200.9c0,0,0.34,0.08,0.94,0.22c0.59,0.14,1.44,0.32,2.45,0.47c1.01,0.16,2.19,0.3,3.45,0.4
				c0.63,0.05,1.28,0.07,1.95,0.1c0.66,0.05,1.34,0.02,2.01,0.03c0.67-0.01,1.35,0,2.01-0.05c0.66-0.03,1.32-0.06,1.95-0.11
				c1.26-0.1,2.45-0.22,3.46-0.36c1.02-0.13,1.86-0.28,2.46-0.38c0.6-0.1,0.95-0.16,0.95-0.16s-0.31,0.18-0.85,0.5
				c-0.55,0.3-1.35,0.7-2.35,1.06c-1,0.38-2.2,0.7-3.5,0.93c-0.65,0.1-1.33,0.23-2.02,0.27c-0.69,0.07-1.4,0.08-2.1,0.11
				c-0.71-0.03-1.41-0.03-2.1-0.1c-0.69-0.04-1.37-0.16-2.03-0.26c-1.31-0.24-2.51-0.57-3.51-0.97c-1-0.38-1.8-0.81-2.34-1.14
				C315.71,201.1,315.41,200.9,315.41,200.9z"/>
		</g>
		<g>
			<path class="st23" d="M338.15,206.59c0,0-1.22,0.32-3.09,0.47c-0.94,0.08-2.04,0.11-3.23-0.01c-0.59-0.07-1.21-0.13-1.83-0.28
				c-0.62-0.15-1.23-0.32-1.84-0.51c-0.6-0.21-1.2-0.42-1.78-0.65c-0.58-0.22-1.14-0.49-1.68-0.74c-1.08-0.52-2.06-1.07-2.87-1.62
				c-0.81-0.54-1.45-1.07-1.86-1.48c-0.42-0.4-0.62-0.67-0.62-0.67s1.15,0.57,2.88,1.21c0.87,0.31,1.89,0.68,2.97,1.07
				c0.54,0.19,1.11,0.38,1.68,0.58c0.57,0.2,1.15,0.39,1.74,0.57c0.58,0.2,1.16,0.39,1.72,0.54c0.57,0.15,1.13,0.3,1.68,0.41
				c1.1,0.23,2.16,0.4,3.07,0.55C336.91,206.3,338.15,206.59,338.15,206.59z"/>
		</g>
		<g>
			<path class="st23" d="M313.65,244.33c0,0,0.09-0.06,0.26-0.18c0.17-0.13,0.44-0.27,0.79-0.44c0.7-0.33,1.76-0.66,3.05-0.88
				c1.29-0.23,2.8-0.36,4.41-0.41c0.81-0.02,1.62-0.07,2.46-0.06c0.84,0,1.69,0,2.55,0c0.85,0.02,1.71,0.04,2.55,0.06
				c0.84,0.01,1.67,0.08,2.47,0.11c1.6,0.08,3.1,0.2,4.38,0.33c2.56,0.25,4.27,0.57,4.27,0.57s-1.71,0.28-4.27,0.47
				c-1.28,0.1-2.77,0.18-4.37,0.22c-0.8,0.01-1.63,0.06-2.47,0.05c-0.84,0-1.69,0-2.55,0c-0.85-0.02-1.71-0.04-2.55-0.06
				c-0.84-0.03-1.67-0.06-2.47-0.09c-1.59-0.07-3.07-0.14-4.33-0.15c-1.26,0-2.31,0.06-3.04,0.19c-0.36,0.07-0.65,0.12-0.84,0.19
				C313.76,244.3,313.65,244.33,313.65,244.33z"/>
		</g>
	</g>
</g>
<g>
	<path class="st23" d="M312.85,199.63c0,0,0.12,0.05,0.36,0.15c0.23,0.1,0.57,0.27,1.01,0.41c0.87,0.34,2.13,0.71,3.65,0.92
		c1.51,0.21,3.29,0.21,5.09-0.18c0.89-0.22,1.8-0.51,2.65-0.98c0.84-0.47,1.66-1.04,2.3-1.82c0.67-0.77,1.31-1.63,1.86-2.53
		c0.54-0.91,1.07-1.81,1.47-2.76c0.86-1.87,1.35-3.81,1.54-5.53c0.19-1.72,0.02-3.23-0.23-4.25c-0.09-0.52-0.25-0.91-0.33-1.18
		c-0.09-0.27-0.13-0.42-0.13-0.42s0.06,0.14,0.18,0.39c0.11,0.26,0.31,0.63,0.46,1.15c0.35,1.01,0.68,2.57,0.6,4.41
		c-0.07,1.83-0.49,3.93-1.32,5.93c-0.4,1.01-0.9,2-1.47,2.95c-0.57,0.95-1.22,1.85-1.94,2.69c-0.73,0.87-1.65,1.48-2.57,1.98
		c-0.92,0.51-1.92,0.76-2.88,0.96c-1.93,0.33-3.8,0.2-5.35-0.17c-1.56-0.36-2.82-0.9-3.66-1.36c-0.43-0.21-0.75-0.43-0.97-0.57
		C312.97,199.71,312.85,199.63,312.85,199.63z"/>
</g>
<g>
	<path class="st23" d="M313.03,199.16c0,0,0.09,0.06,0.25,0.17c0.17,0.1,0.39,0.3,0.71,0.44c0.62,0.35,1.56,0.7,2.69,0.71
		c1.12,0.01,2.41-0.27,3.6-1c0.61-0.33,1.16-0.83,1.69-1.35c0.52-0.54,0.96-1.19,1.33-1.9c0.36-0.72,0.64-1.5,0.85-2.3
		c0.2-0.8,0.33-1.62,0.41-2.43c0.13-1.63,0.04-3.19-0.13-4.53c-0.18-1.34-0.41-2.45-0.61-3.23c-0.09-0.39-0.18-0.69-0.23-0.9
		c-0.05-0.21-0.08-0.32-0.08-0.32s0.04,0.11,0.12,0.3c0.08,0.2,0.21,0.49,0.34,0.87c0.28,0.75,0.63,1.85,0.91,3.22
		c0.28,1.36,0.46,2.99,0.38,4.73c-0.06,0.86-0.16,1.75-0.37,2.62c-0.22,0.86-0.51,1.71-0.9,2.5c-0.41,0.78-0.91,1.49-1.49,2.07
		c-0.58,0.57-1.21,1.06-1.88,1.4c-1.32,0.72-2.74,0.92-3.94,0.78c-1.21-0.13-2.17-0.64-2.76-1.09c-0.31-0.2-0.52-0.43-0.67-0.56
		C313.11,199.24,313.03,199.16,313.03,199.16z"/>
</g>
<g>
	<path class="st23" d="M314.1,199.82c0,0,0.23-0.23,0.63-0.63c0.1-0.1,0.22-0.2,0.33-0.33c0.11-0.14,0.22-0.28,0.35-0.44
		c0.12-0.15,0.26-0.32,0.39-0.49c0.13-0.18,0.25-0.39,0.38-0.6c0.55-0.81,1.01-1.91,1.42-3.11c0.17-0.62,0.35-1.26,0.45-1.94
		c0.15-0.66,0.18-1.38,0.25-2.08c0-0.71,0.06-1.42-0.02-2.12c-0.02-0.7-0.14-1.39-0.23-2.06c-0.27-1.32-0.6-2.56-1.05-3.55
		c-0.11-0.25-0.2-0.5-0.31-0.72c-0.12-0.22-0.23-0.42-0.33-0.62c-0.1-0.2-0.2-0.38-0.29-0.55c-0.1-0.17-0.2-0.3-0.29-0.44
		c-0.35-0.53-0.55-0.84-0.55-0.84s0.24,0.26,0.67,0.72c0.1,0.12,0.23,0.24,0.35,0.39c0.11,0.16,0.23,0.33,0.36,0.51
		c0.13,0.19,0.26,0.38,0.41,0.59c0.13,0.22,0.25,0.46,0.38,0.71c0.56,0.98,1,2.26,1.34,3.65c0.12,0.7,0.29,1.43,0.32,2.18
		c0.09,0.75,0.05,1.5,0.05,2.26c-0.09,0.74-0.13,1.5-0.3,2.2c-0.11,0.73-0.35,1.38-0.55,2.03c-0.49,1.25-1.05,2.35-1.71,3.12
		c-0.16,0.2-0.3,0.39-0.45,0.56c-0.16,0.15-0.32,0.3-0.47,0.44c-0.15,0.13-0.28,0.26-0.41,0.38c-0.13,0.11-0.27,0.19-0.38,0.27
		C314.36,199.65,314.1,199.82,314.1,199.82z"/>
</g>
<g>
	<path class="st23" d="M208.11,249.37c0,0-0.06,0.11-0.17,0.31c-0.12,0.2-0.27,0.52-0.51,0.87c-0.45,0.74-1.17,1.74-2.16,2.74
		c-0.99,0.99-2.25,1.97-3.69,2.66c-0.72,0.34-1.48,0.61-2.26,0.78c-0.78,0.15-1.57,0.22-2.36,0.19c-0.78-0.07-1.55-0.23-2.28-0.47
		c-0.73-0.26-1.41-0.62-2.04-1.04c-1.25-0.85-2.27-1.97-3-3.06c-0.74-1.1-1.2-2.18-1.47-2.96c-0.15-0.38-0.23-0.71-0.29-0.92
		c-0.06-0.22-0.09-0.33-0.09-0.33s0.05,0.1,0.13,0.3c0.09,0.19,0.2,0.49,0.39,0.84c0.34,0.71,0.89,1.66,1.67,2.64
		c0.78,0.96,1.8,1.93,3.02,2.68c0.61,0.37,1.27,0.65,1.95,0.9c0.69,0.22,1.41,0.36,2.14,0.41c0.73,0.04,1.48-0.01,2.21-0.15
		c0.73-0.16,1.45-0.36,2.14-0.66c1.37-0.58,2.61-1.42,3.61-2.27c1-0.87,1.77-1.74,2.27-2.4c0.26-0.32,0.45-0.6,0.58-0.78
		C208.04,249.46,208.11,249.37,208.11,249.37z"/>
</g>
<g>
	<path class="st23" d="M210.87,245.43c0,0-0.27,0.27-0.74,0.74c-0.12,0.11-0.25,0.26-0.4,0.38c-0.16,0.11-0.33,0.24-0.51,0.37
		c-0.18,0.13-0.38,0.27-0.58,0.41c-0.21,0.13-0.44,0.23-0.68,0.35c-0.95,0.53-2.13,0.8-3.4,0.91c-0.64-0.01-1.3,0.03-1.96-0.13
		c-0.67-0.07-1.33-0.33-2-0.52c-0.64-0.31-1.3-0.57-1.9-0.99c-0.62-0.34-1.17-0.86-1.72-1.31c-1.04-1.01-1.95-2.1-2.56-3.23
		c-0.16-0.28-0.32-0.53-0.45-0.79c-0.12-0.27-0.23-0.53-0.34-0.77c-0.1-0.24-0.2-0.47-0.29-0.68c-0.08-0.21-0.14-0.43-0.2-0.61
		c-0.22-0.74-0.35-1.17-0.35-1.17s0.18,0.39,0.48,1.07c0.08,0.17,0.15,0.36,0.25,0.56c0.11,0.19,0.22,0.39,0.35,0.61
		c0.12,0.22,0.25,0.45,0.39,0.69c0.15,0.23,0.32,0.46,0.49,0.7c0.66,1,1.57,1.95,2.59,2.85c0.53,0.4,1.07,0.84,1.66,1.16
		c0.57,0.39,1.2,0.62,1.81,0.91c0.63,0.19,1.25,0.45,1.89,0.53c0.63,0.15,1.25,0.17,1.86,0.21c1.21-0.04,2.35-0.18,3.29-0.56
		c0.24-0.09,0.47-0.16,0.68-0.25c0.21-0.11,0.41-0.21,0.59-0.31c0.19-0.1,0.36-0.19,0.53-0.27c0.16-0.09,0.3-0.21,0.43-0.29
		C210.58,245.63,210.87,245.43,210.87,245.43z"/>
</g>
<g>
	<path class="st23" d="M214.7,244.37c0,0-0.07,0.03-0.21,0.09c-0.14,0.05-0.33,0.16-0.59,0.22c-0.51,0.17-1.28,0.32-2.2,0.24
		c-0.92-0.08-1.99-0.4-3.05-1.03c-0.53-0.32-1.06-0.71-1.57-1.16c-0.51-0.47-0.99-0.99-1.45-1.56c-0.45-0.59-0.87-1.22-1.24-1.88
		c-0.37-0.67-0.69-1.37-0.96-2.07c-0.54-1.41-0.86-2.86-0.99-4.12c-0.13-1.26-0.08-2.32,0-3.04c0.03-0.36,0.09-0.64,0.12-0.83
		c0.03-0.19,0.05-0.29,0.05-0.29s0,0.1-0.01,0.3c0,0.19-0.02,0.48-0.01,0.84c0,0.72,0.07,1.74,0.27,2.92
		c0.22,1.17,0.59,2.49,1.14,3.79c0.27,0.65,0.61,1.27,0.95,1.9c0.36,0.61,0.76,1.19,1.18,1.74c0.43,0.54,0.88,1.04,1.35,1.49
		c0.48,0.43,0.95,0.84,1.44,1.16c0.98,0.66,1.96,1.06,2.82,1.27c0.87,0.19,1.61,0.2,2.13,0.14c0.26-0.01,0.46-0.06,0.6-0.08
		C214.63,244.38,214.7,244.37,214.7,244.37z"/>
</g>
</svg>
